<?xml version="1.0" standalone="no"?>
<!DOCTYPE svg PUBLIC "-//W3C//DTD SVG 20010904//EN"
 "http://www.w3.org/TR/2001/REC-SVG-20010904/DTD/svg10.dtd">
<svg version="1.0" xmlns="http://www.w3.org/2000/svg"
 width="512.000000pt" height="512.000000pt" viewBox="0 0 512.000000 512.000000"
 preserveAspectRatio="xMidYMid meet">
<metadata>
Created by potrace 1.14, written by Peter Selinger 2001-2017
</metadata>
<g transform="translate(0.000000,512.000000) scale(0.100000,-0.100000)"
fill="#000000" stroke="none">
<path d="M3685 4926 c-257 -84 -425 -244 -482 -459 -10 -37 -17 -105 -17 -171
l-1 -108 -64 -24 c-35 -13 -68 -24 -73 -24 -9 0 -5 178 7 350 8 99 7 156 -3
180 -25 61 -112 120 -223 150 -66 18 -77 20 -164 28 -287 26 -536 -45 -602
-173 -13 -24 -14 -50 -9 -140 18 -292 21 -407 21 -750 0 -203 -4 -435 -9 -515
-13 -192 -13 -320 -1 -465 13 -156 13 -718 0 -860 -5 -60 -9 -238 -8 -395 0
-157 -3 -331 -7 -387 -4 -56 -11 -139 -14 -185 -4 -46 -9 -99 -11 -118 -2 -19
-7 -57 -10 -85 -3 -27 -12 -111 -20 -185 -22 -190 -22 -222 6 -259 74 -101
293 -163 564 -160 328 3 545 85 569 215 3 16 1 67 -5 114 -5 47 -12 101 -14
120 -2 19 -11 107 -20 195 -8 88 -17 176 -19 195 -18 148 -27 614 -13 705 3
22 2 72 -3 111 -14 111 -24 323 -24 519 0 180 11 484 20 540 6 39 6 224 1 251
-10 44 -21 340 -22 582 l0 254 100 38 100 38 17 -35 c60 -122 180 -214 316
-242 75 -16 190 -14 280 5 177 36 207 77 136 183 -77 114 -188 202 -311 247
l-74 27 33 35 c54 59 57 62 87 105 43 64 77 135 100 212 27 91 30 112 38 226
l6 95 -28 22 c-35 27 -62 27 -150 -2z"/>
<path d="M193 4325 c-26 -22 -28 -28 -26 -95 5 -142 43 -308 95 -416 76 -157
198 -244 341 -244 43 0 61 -7 124 -47 63 -41 73 -52 74 -78 0 -16 2 -43 4 -60
9 -90 16 -326 15 -515 0 -214 -2 -262 -16 -435 -9 -111 -9 -110 0 -220 4 -49
9 -115 12 -145 5 -69 6 -458 0 -485 -7 -36 -20 -199 -18 -230 1 -16 3 -95 4
-175 2 -206 -12 -379 -57 -700 -19 -132 -13 -169 37 -209 34 -28 127 -67 178
-75 136 -23 210 -28 340 -23 159 5 266 25 348 62 57 26 69 36 96 77 20 31 19
46 -10 268 -33 249 -42 394 -42 635 0 138 -3 261 -7 275 -11 38 -14 543 -3
645 13 132 14 226 3 355 -18 206 -11 778 11 983 11 95 -31 152 -144 196 -189
74 -573 54 -683 -37 -14 -11 -23 -9 -63 15 -50 30 -49 28 -66 151 -44 319
-219 526 -462 546 -50 5 -61 2 -85 -19z"/>
<path d="M4789 3401 c-169 -72 -293 -202 -347 -366 -28 -82 -33 -123 -33 -241
l0 -101 -38 -12 c-21 -6 -40 -11 -42 -11 -3 0 -4 21 -3 48 7 147 14 287 20
362 6 78 4 88 -17 120 -55 81 -216 124 -429 115 -250 -10 -373 -84 -356 -214
20 -150 26 -597 12 -821 -11 -175 -12 -203 -1 -340 12 -144 13 -403 2 -535 -5
-55 -10 -215 -12 -355 -2 -140 -6 -271 -9 -290 -3 -19 -10 -78 -17 -130 -6
-52 -13 -104 -15 -115 -2 -11 -7 -53 -11 -92 l-6 -72 39 -40 c29 -28 58 -45
108 -60 98 -30 151 -36 326 -35 286 0 442 59 443 166 0 18 -5 71 -11 118 -17
120 -19 136 -27 215 -4 39 -10 79 -12 90 -3 11 -6 149 -8 306 -1 158 -6 292
-9 298 -11 16 -10 390 0 511 5 58 9 134 9 170 -1 89 -16 382 -20 397 -5 14 29
40 59 45 18 3 20 -4 22 -74 7 -261 139 -464 369 -569 84 -38 127 -41 157 -12
18 19 21 32 20 102 -4 247 -98 484 -244 616 l-51 46 59 57 c76 73 129 153 169
257 46 117 74 289 66 413 -2 31 -36 62 -68 62 -16 0 -58 -13 -94 -29z"/>
</g>
</svg>
