<?xml version="1.0" standalone="no"?>
<!DOCTYPE svg PUBLIC "-//W3C//DTD SVG 20010904//EN"
 "http://www.w3.org/TR/2001/REC-SVG-20010904/DTD/svg10.dtd">
<svg version="1.0" xmlns="http://www.w3.org/2000/svg"
 width="1078.000000pt" height="1078.000000pt" viewBox="0 0 1078.000000 1078.000000"
 preserveAspectRatio="xMidYMid meet">
<metadata>
Created by potrace 1.14, written by Peter Selinger 2001-2017
</metadata>
<g transform="translate(0.000000,1078.000000) scale(0.100000,-0.100000)"
fill="#000000" stroke="none">
<path d="M6546 10268 c-9 -5 -14 -13 -11 -19 4 -5 2 -9 -4 -9 -5 0 -8 -9 -6
-20 2 -11 0 -20 -6 -20 -5 0 -8 -3 -8 -7 4 -22 -2 -33 -13 -27 -10 6 -10 4 0
-8 9 -12 10 -18 2 -23 -6 -4 -9 -13 -6 -20 2 -7 -2 -22 -10 -33 -10 -14 -11
-23 -4 -27 7 -4 7 -11 2 -18 -5 -7 -8 -22 -7 -34 1 -13 -3 -23 -9 -23 -6 0 -4
-5 4 -10 10 -6 11 -10 3 -10 -8 0 -11 -11 -9 -30 2 -16 0 -27 -5 -24 -4 2 -6
-10 -4 -28 2 -19 -1 -36 -8 -40 -9 -6 -9 -8 0 -8 7 0 10 -6 8 -12 -3 -7 -7
-44 -9 -83 -3 -38 -7 -87 -9 -107 -4 -27 -2 -36 6 -31 7 4 6 -1 -1 -10 -8 -9
-11 -21 -8 -26 4 -5 3 -12 -2 -15 -4 -2 -7 -24 -6 -48 1 -24 -4 -47 -10 -51
-8 -6 -7 -10 2 -14 6 -2 12 -9 12 -14 0 -6 -3 -8 -7 -6 -5 3 -9 -14 -10 -36
-3 -71 -8 -97 -15 -97 -5 0 -8 -8 -8 -17 0 -15 -2 -16 -10 -3 -6 10 -10 11
-10 3 0 -7 -3 -12 -7 -12 -26 4 -43 -2 -38 -13 4 -7 0 -5 -8 5 -8 10 -18 14
-21 9 -3 -6 -20 -7 -41 -2 -19 4 -37 5 -39 1 -3 -4 -30 -4 -60 -1 -36 4 -56 2
-56 -4 0 -6 -4 -5 -9 3 -5 8 -11 9 -15 3 -4 -7 -17 -7 -36 -2 -20 6 -30 5 -34
-3 -3 -8 -5 -7 -5 2 -1 11 -6 10 -21 -4 -20 -18 -21 -18 -15 1 6 18 6 18 -8 1
-13 -16 -15 -16 -21 -2 -4 11 -11 13 -23 8 -10 -5 -43 -8 -73 -7 -30 0 -61 -4
-69 -10 -11 -8 -13 -8 -7 2 4 6 3 12 -3 12 -5 0 -13 -5 -17 -11 -4 -8 -9 -7
-15 2 -6 10 -9 10 -9 2 0 -7 -9 -10 -22 -8 -12 3 -26 -1 -30 -8 -6 -9 -8 -9
-8 1 0 10 -4 10 -16 -2 -11 -12 -20 -13 -34 -6 -14 8 -21 6 -28 -6 -6 -10 -16
-15 -25 -11 -9 3 -19 2 -22 -3 -3 -5 -13 -6 -22 -3 -10 4 -14 2 -10 -4 3 -5
-3 -9 -16 -8 -29 3 -48 -5 -41 -16 3 -5 -2 -9 -11 -9 -9 0 -13 5 -10 11 4 6
-2 5 -13 -2 -12 -7 -18 -17 -15 -23 3 -5 1 -6 -6 -2 -6 4 -18 2 -26 -4 -8 -7
-15 -9 -15 -4 0 5 -7 0 -15 -10 -11 -14 -15 -16 -15 -5 -1 10 -3 9 -11 -4 -6
-9 -14 -15 -20 -12 -5 4 -12 -1 -15 -9 -3 -9 -10 -16 -16 -16 -5 0 -6 6 -2 13
4 7 3 9 -2 4 -5 -5 -9 -14 -9 -20 0 -7 -8 -11 -17 -9 -8 1 -18 -4 -21 -12 -3
-8 -22 -22 -42 -32 -23 -11 -34 -22 -31 -31 3 -8 1 -11 -4 -8 -6 3 -10 0 -10
-7 0 -9 -3 -9 -10 2 -9 14 -11 13 -14 -10 0 -6 -8 -15 -16 -20 -8 -5 -11 -10
-6 -10 6 0 1 -7 -10 -15 -12 -9 -14 -14 -6 -15 9 0 7 -8 -7 -28 -16 -23 -17
-32 -8 -41 9 -10 8 -11 -6 -5 -13 5 -16 2 -10 -12 5 -13 3 -15 -8 -9 -11 7
-11 5 1 -10 8 -10 10 -16 5 -13 -6 4 -17 -2 -24 -14 -7 -11 -8 -17 -2 -14 7 4
8 1 5 -8 -3 -9 -10 -16 -15 -16 -4 0 -6 -6 -3 -14 3 -8 1 -17 -5 -20 -6 -4 -7
-14 -4 -23 5 -12 3 -14 -7 -8 -9 5 -11 4 -6 -4 4 -6 2 -19 -6 -28 -9 -12 -9
-15 -1 -9 9 5 11 2 7 -8 -3 -9 -11 -16 -18 -16 -6 0 -4 -5 4 -10 11 -7 11 -10
2 -10 -7 0 -12 -8 -10 -17 2 -11 -2 -17 -10 -15 -10 2 -10 -2 -2 -18 7 -13 7
-20 1 -20 -6 0 -8 -7 -5 -15 4 -9 0 -15 -7 -15 -11 0 -11 -3 1 -10 11 -7 11
-10 2 -10 -7 0 -10 -4 -7 -10 3 -5 0 -10 -7 -10 -9 0 -9 -3 2 -10 11 -7 12
-10 2 -10 -9 0 -11 -7 -7 -19 3 -11 1 -22 -5 -26 -5 -3 -8 -17 -6 -31 3 -13 1
-24 -3 -24 -4 0 -7 -10 -6 -22 1 -13 -3 -26 -9 -30 -7 -5 -6 -8 3 -8 11 0 11
-3 0 -17 -12 -14 -12 -15 -1 -9 11 7 12 4 3 -13 -7 -11 -9 -21 -5 -21 3 0 1
-6 -5 -14 -9 -11 -9 -16 0 -22 8 -5 9 -3 4 6 -5 9 -4 11 4 6 9 -6 9 -11 1 -21
-6 -7 -12 -33 -13 -58 -1 -25 -5 -49 -9 -53 -4 -3 -3 -15 2 -25 7 -12 6 -20
-1 -25 -8 -4 -7 -9 2 -15 8 -5 9 -9 3 -9 -7 0 -10 -13 -8 -30 2 -19 -1 -30 -9
-30 -7 0 -8 -3 -2 -8 14 -10 14 -52 1 -52 -6 0 -4 -5 4 -10 9 -6 11 -10 3 -10
-7 0 -10 -7 -6 -16 3 -9 0 -20 -8 -25 -11 -7 -10 -9 4 -9 15 0 16 -3 5 -22
-16 -30 -18 -47 -7 -54 5 -3 4 -14 -2 -26 -9 -16 -8 -19 3 -12 11 6 11 5 -1
-9 -11 -14 -11 -17 0 -17 10 0 11 -2 2 -8 -6 -4 -12 -36 -14 -72 -2 -36 -5
-69 -7 -74 -9 -16 -8 -86 0 -86 5 0 6 -5 3 -10 -13 -21 -14 -70 -2 -70 7 0 6
-4 -3 -10 -8 -5 -11 -10 -6 -10 5 0 3 -6 -3 -14 -9 -11 -9 -16 0 -22 8 -5 9
-3 4 6 -5 9 -4 11 3 6 8 -4 8 -15 2 -31 -5 -13 -10 -60 -12 -105 -1 -47 -6
-80 -13 -80 -5 0 -4 -4 4 -9 9 -6 10 -11 2 -15 -8 -5 -8 -13 -1 -26 7 -13 7
-21 -1 -26 -8 -4 -7 -9 2 -15 8 -5 9 -9 3 -9 -5 0 -10 -18 -11 -40 -1 -27 3
-38 11 -33 6 4 5 -1 -3 -10 -8 -10 -12 -33 -9 -57 2 -22 0 -40 -4 -40 -3 0 -3
-13 2 -30 7 -25 6 -30 -8 -30 -14 0 -14 -2 -3 -9 8 -5 12 -18 8 -30 -3 -12 -1
-24 5 -27 5 -3 2 -15 -9 -27 -10 -11 -12 -17 -5 -13 8 5 12 0 12 -14 0 -14 -4
-19 -12 -14 -9 5 -9 2 1 -9 7 -9 10 -17 6 -17 -4 0 -2 -7 5 -15 11 -13 10 -14
-3 -9 -16 6 -18 -10 -4 -33 4 -7 3 -22 -3 -33 -8 -14 -8 -20 0 -20 6 0 8 -5 3
-12 -4 -7 -7 -29 -8 -48 0 -19 -3 -40 -7 -46 -4 -6 -4 -14 -1 -18 11 -11 10
-46 -1 -46 -6 0 -4 -5 4 -10 13 -9 13 -10 0 -10 -13 0 -13 -1 0 -10 8 -5 10
-10 4 -10 -7 0 -10 -13 -8 -31 3 -22 0 -28 -9 -23 -6 5 -5 0 3 -11 18 -22 18
-18 1 -38 -7 -10 -9 -17 -3 -17 11 0 11 -18 -1 -37 -5 -8 -3 -13 4 -13 8 0 9
-4 0 -13 -8 -10 -7 -17 1 -25 9 -9 9 -12 -1 -12 -11 0 -11 -3 0 -17 12 -14 12
-15 1 -9 -11 7 -12 4 -3 -13 7 -11 8 -21 3 -21 -12 0 -10 -71 2 -89 7 -10 6
-12 -4 -6 -9 6 -11 -1 -8 -29 2 -20 0 -36 -4 -36 -5 0 -4 -9 2 -20 8 -15 8
-20 -2 -20 -9 0 -9 -3 2 -10 8 -5 10 -10 4 -10 -6 0 -9 -22 -7 -55 1 -38 -2
-55 -10 -55 -8 0 -8 -3 -2 -8 6 -4 11 -16 11 -27 0 -11 -5 -23 -11 -27 -6 -5
-5 -8 4 -8 9 0 11 -6 6 -17 -4 -10 -9 -61 -10 -113 -2 -52 -4 -95 -5 -95 -1 0
-2 -44 -2 -98 -1 -54 -5 -100 -10 -103 -5 -3 -4 -12 2 -19 7 -8 8 -20 4 -27
-10 -16 -12 -58 -2 -64 5 -3 4 -13 -1 -22 -6 -11 -6 -24 0 -35 7 -11 7 -17 0
-17 -10 0 -9 -19 2 -37 4 -6 3 -14 -1 -17 -5 -3 -8 -15 -7 -28 1 -13 -3 -29
-9 -37 -8 -11 -8 -13 2 -7 6 4 12 3 12 -3 0 -5 -5 -13 -10 -16 -8 -5 -8 -11
-1 -19 6 -7 9 -15 7 -17 -2 -2 -6 -17 -10 -32 -5 -21 -4 -27 5 -21 8 5 9 3 4
-5 -4 -7 -9 -35 -11 -63 -2 -27 -6 -53 -9 -59 -4 -5 -1 -9 5 -9 8 0 9 -7 5
-17 -4 -10 -7 -24 -6 -30 2 -27 2 -39 -2 -75 -3 -21 -1 -38 5 -38 5 0 6 -6 2
-12 -14 -22 -14 -112 -1 -120 9 -6 8 -8 -4 -8 -12 0 -14 -9 -9 -54 7 -61 3
-79 -13 -69 -9 5 -9 3 -1 -8 15 -19 16 -79 1 -79 -7 0 -6 -4 3 -10 13 -9 13
-11 0 -20 -10 -6 -11 -10 -3 -10 15 0 13 -21 -2 -32 -6 -5 -5 -8 4 -8 11 0 11
-3 1 -15 -10 -12 -10 -15 1 -15 9 0 10 -3 4 -8 -13 -9 -15 -52 -2 -52 6 0 6
-4 0 -12 -5 -7 -9 -28 -8 -45 0 -18 -4 -33 -10 -33 -6 0 -7 -3 0 -8 10 -7 15
-62 5 -62 -8 0 -4 -95 5 -110 5 -8 4 -11 -2 -7 -5 3 -9 -19 -8 -56 1 -34 -2
-72 -6 -85 -6 -15 -5 -22 4 -22 8 0 7 -4 -3 -10 -11 -7 -11 -10 -2 -10 10 0
10 -5 2 -20 -8 -14 -8 -20 0 -20 7 0 8 -6 2 -17 -4 -10 -8 -46 -7 -81 0 -36
-4 -62 -10 -62 -5 0 -3 -5 5 -10 8 -5 10 -10 5 -10 -6 0 -10 -19 -9 -42 1 -24
-3 -51 -8 -62 -7 -12 -7 -16 0 -12 6 3 9 -5 8 -19 0 -14 -5 -25 -10 -25 -5 0
-3 -7 4 -15 10 -12 10 -15 0 -15 -10 0 -10 -3 -1 -14 9 -10 9 -16 1 -21 -8 -5
-8 -11 -1 -19 6 -7 8 -15 5 -18 -12 -13 -14 -58 -2 -58 8 0 9 -3 3 -8 -16 -11
-17 -34 -3 -43 11 -7 10 -9 -1 -9 -8 0 -11 -6 -7 -16 4 -12 2 -15 -9 -10 -12
4 -12 1 2 -21 10 -15 13 -28 8 -30 -6 -2 -9 -28 -7 -60 2 -38 -1 -59 -10 -65
-10 -6 -10 -8 0 -8 6 0 12 -7 12 -16 0 -8 -5 -12 -10 -9 -6 4 -5 -4 1 -19 9
-20 9 -29 -1 -41 -9 -11 -9 -15 -1 -15 7 0 9 -5 4 -12 -12 -21 -12 -38 0 -38
8 0 7 -3 -2 -9 -9 -6 -10 -10 -2 -16 8 -4 9 -11 2 -19 -5 -6 -9 -33 -8 -59 1
-26 -2 -47 -8 -47 -5 0 -3 -5 5 -10 11 -7 11 -10 2 -10 -10 0 -10 -5 -1 -22
10 -18 9 -20 -7 -14 -18 6 -18 5 0 -9 11 -8 15 -15 10 -15 -6 0 -9 -13 -8 -30
1 -17 -3 -30 -9 -30 -8 0 -8 -3 0 -8 12 -7 10 -48 -2 -60 -2 -3 0 -11 6 -19 9
-10 8 -13 -1 -13 -10 0 -10 -3 -1 -14 9 -11 9 -16 0 -21 -8 -6 -7 -10 2 -16
12 -7 12 -9 0 -9 -11 0 -11 -3 -1 -15 7 -8 8 -15 3 -15 -5 0 -8 -18 -7 -40 1
-28 -2 -38 -10 -33 -8 5 -8 3 0 -8 6 -8 9 -30 7 -49 -2 -19 -4 -50 -3 -69 0
-19 -5 -38 -12 -42 -9 -6 -10 -9 -1 -9 12 0 10 -61 -2 -80 -3 -5 1 -11 7 -13
10 -4 10 -8 -1 -15 -12 -8 -12 -14 -3 -25 7 -7 9 -17 5 -21 -12 -11 -14 -48
-3 -61 5 -6 6 -15 2 -19 -10 -11 -9 -30 3 -38 7 -5 7 -8 0 -8 -12 0 -13 -59
-2 -76 3 -6 3 -14 0 -18 -12 -12 -12 -36 0 -36 7 0 5 -5 -3 -10 -8 -5 -10 -10
-4 -10 6 0 10 -16 9 -37 -1 -21 2 -48 6 -61 6 -14 5 -22 -3 -22 -6 0 -4 -8 5
-18 10 -10 14 -22 10 -26 -12 -12 -12 -36 0 -36 7 0 5 -5 -3 -10 -13 -9 -13
-10 0 -10 13 0 13 -1 0 -10 -13 -8 -12 -10 3 -10 15 0 16 -3 7 -20 -7 -13 -7
-20 -1 -20 6 0 7 -7 4 -17 -5 -12 -3 -14 8 -8 12 8 12 6 0 -8 -13 -16 -8 -22
13 -18 5 1 4 -5 -4 -13 -9 -12 -9 -16 -1 -16 7 0 9 -5 6 -10 -8 -12 16 -70 29
-70 4 0 2 -8 -5 -17 -10 -11 -10 -14 -2 -9 8 4 13 1 13 -9 0 -9 4 -13 10 -10
6 3 10 1 10 -4 0 -6 7 -11 16 -11 8 0 13 -4 9 -9 -3 -5 0 -13 6 -17 7 -4 9 -3
5 4 -3 6 -2 13 4 17 5 3 10 2 10 -4 0 -8 51 -8 70 -1 3 1 13 2 23 1 9 -1 17 3
17 10 0 8 5 7 17 -2 11 -10 14 -10 9 -1 -4 7 -2 12 6 12 7 0 24 12 38 27 14
15 19 23 13 19 -17 -10 -16 2 1 19 7 8 17 11 22 7 5 -4 3 0 -4 9 -9 12 -8 20
5 39 9 13 11 20 5 16 -15 -9 -15 -1 -1 26 6 11 7 18 2 15 -5 -4 -10 0 -10 8 0
8 4 12 8 9 5 -2 7 11 5 30 -1 20 2 38 8 40 8 3 8 5 0 5 -7 1 -8 18 -4 49 3 27
3 60 -1 75 -5 20 -4 24 8 20 12 -5 13 -2 5 13 -13 24 -13 34 0 58 7 13 7 16
-1 12 -13 -9 -14 4 -2 23 6 9 6 22 1 31 -6 11 -5 21 2 28 9 9 9 12 -1 12 -11
0 -11 3 -1 15 9 11 9 15 1 15 -7 0 -9 5 -5 12 12 19 14 58 3 58 -6 0 -7 5 -3
12 14 22 15 68 1 68 -8 0 -7 3 2 9 13 8 13 12 0 27 -10 13 -11 16 -1 10 11 -6
13 -1 11 20 -2 16 1 35 6 43 6 11 4 13 -11 8 -18 -7 -18 -7 0 8 14 11 16 15 5
15 -12 0 -12 2 1 10 13 9 13 10 0 10 -12 0 -13 2 -1 9 11 7 11 9 0 14 -12 5
-12 6 0 6 10 1 11 4 2 15 -8 10 -9 16 -1 21 5 3 10 11 10 16 0 6 -6 7 -12 3
-10 -6 -10 -5 -1 8 7 8 10 18 6 21 -3 4 0 14 8 24 8 9 9 14 4 11 -7 -5 -10 17
-9 65 1 40 3 72 4 72 6 0 5 47 -1 57 -5 7 -1 20 8 31 16 17 16 17 -3 11 -16
-7 -17 -5 -7 7 10 12 10 18 0 29 -9 10 -9 11 1 6 9 -6 11 -1 8 18 -3 14 -8 31
-12 38 -5 9 -2 9 9 -1 16 -13 17 -12 8 13 -8 19 -7 26 2 26 8 0 7 4 -3 10 -8
5 -10 10 -5 10 6 0 10 46 10 118 0 66 -4 120 -10 124 -7 5 -6 8 1 8 7 0 10 29
9 80 -2 53 1 80 9 80 6 0 5 4 -2 9 -19 11 -19 15 -3 34 9 12 10 17 2 17 -9 0
-9 5 -1 21 8 15 8 24 0 34 -6 7 -7 15 -3 18 5 3 8 53 8 111 0 58 3 106 7 106
4 0 3 12 -2 26 -7 17 -7 23 0 19 7 -4 8 3 4 21 -6 21 -4 25 7 19 11 -6 12 -5
2 6 -17 17 -17 32 0 23 8 -5 8 -2 -2 9 -11 14 -11 20 0 34 8 10 9 14 2 10 -8
-5 -11 0 -10 13 1 11 5 20 10 20 5 0 4 7 -4 16 -10 13 -10 17 2 25 8 5 9 9 3
9 -14 0 -13 32 1 42 6 5 4 8 -5 8 -13 0 -13 1 0 10 12 8 12 10 1 10 -11 0 -11
3 0 16 10 13 10 17 -2 25 -9 5 -10 9 -2 9 12 0 10 30 -3 52 -4 6 -3 8 4 4 7
-4 10 1 9 14 -1 11 -6 20 -11 20 -5 0 -1 7 10 16 10 8 14 13 8 10 -7 -3 -10
28 -10 95 1 54 4 99 9 99 4 0 7 5 7 11 0 5 -4 8 -9 5 -5 -3 -8 5 -7 19 0 14 3
25 6 25 3 0 5 34 5 75 -1 46 3 75 10 75 6 0 7 3 0 8 -12 9 -19 42 -8 42 4 0 8
23 8 50 0 28 -4 50 -8 50 -4 0 -3 9 3 19 7 14 7 22 0 26 -8 5 -8 11 -1 19 6 7
8 23 6 36 -3 13 1 28 8 32 8 5 8 8 1 8 -7 0 -9 10 -6 25 2 14 9 22 15 18 6 -3
3 4 -5 16 -11 15 -14 32 -9 54 4 18 6 44 5 60 -2 15 1 27 7 27 5 0 9 5 9 11 0
5 -4 8 -9 4 -11 -6 -9 44 2 63 5 6 5 18 0 25 -12 19 -12 36 -1 43 6 4 5 10 -3
15 -12 8 -11 11 1 19 11 7 11 10 2 10 -9 0 -10 5 -2 19 7 14 6 21 -3 24 -9 4
-9 6 1 6 7 1 10 5 7 11 -3 5 -8 19 -10 31 -3 15 0 19 11 15 10 -4 13 -2 8 6
-9 14 -12 108 -4 108 7 0 4 65 -4 78 -4 7 -3 12 2 12 5 0 9 19 7 43 -1 23 2
47 7 54 5 7 5 14 -2 18 -5 3 -10 11 -10 16 0 6 4 8 8 5 5 -3 9 1 9 9 0 8 -3
15 -6 15 -3 0 -6 11 -6 24 0 13 4 22 8 19 12 -7 4 31 -8 39 -6 5 -6 8 1 8 11
0 11 46 0 58 -3 3 2 14 11 25 10 11 13 18 7 14 -7 -4 -10 24 -10 83 1 56 5 86
11 82 5 -3 4 1 -2 9 -10 12 -10 18 -1 27 9 9 9 12 -2 12 -9 0 -8 5 6 16 10 8
14 13 7 10 -6 -4 -14 -2 -18 4 -3 5 -2 10 2 10 5 0 8 27 7 60 -1 36 2 57 8 54
6 -4 6 2 -1 13 -7 14 -7 23 1 31 8 8 8 12 2 12 -9 0 -11 38 -4 48 7 8 5 29 -4
41 -8 11 -8 13 1 8 14 -9 14 32 0 51 -7 9 -6 11 7 6 14 -5 15 -3 7 19 -7 16
-6 28 2 36 8 8 7 11 -4 11 -12 0 -12 2 1 10 13 9 13 11 0 20 -14 9 -7 15 14
11 5 -1 4 4 -2 12 -12 14 -10 96 3 118 5 8 4 10 -3 5 -14 -9 -15 3 -3 23 6 9
6 22 1 32 -5 9 -6 20 -2 24 10 10 9 29 -2 37 -6 4 -6 11 0 20 11 16 11 38 0
57 -6 9 -5 12 1 8 6 -4 10 20 10 61 2 142 2 144 16 136 9 -6 9 -5 0 7 -12 15
-12 43 0 55 4 4 2 13 -4 21 -6 7 -7 13 -2 13 5 0 10 7 10 15 0 8 -5 15 -11 15
-6 0 -5 4 3 9 9 6 10 11 2 15 -7 5 -7 15 -1 32 13 33 13 37 -2 28 -9 -5 -9 -2
1 9 7 9 10 17 6 17 -4 0 -1 8 6 17 10 11 10 14 2 9 -7 -4 -13 -2 -13 3 0 6 5
11 10 11 6 0 10 4 10 10 0 5 -8 6 -17 3 -16 -6 -16 -5 -4 10 7 9 10 17 5 17
-5 0 -2 5 6 10 10 6 11 10 3 10 -7 0 -13 5 -13 11 0 5 4 7 10 4 7 -4 7 3 0 19
-7 19 -6 26 3 26 8 0 7 4 -3 10 -8 5 -10 10 -5 10 6 0 11 9 11 20 0 11 -4 20
-8 20 -5 0 -5 8 0 18 5 9 7 23 5 30 -3 7 0 19 7 26 6 8 7 17 2 20 -7 4 -9 71
-2 71 1 0 2 17 4 37 2 25 -1 35 -8 31 -6 -4 -5 1 3 10 11 14 11 17 0 17 -9 0
-10 3 -3 8 6 4 12 39 12 80 1 41 6 80 13 88 9 11 8 18 -5 33 -17 18 -16 20 1
30 10 6 12 11 5 11 -14 0 -12 21 3 32 6 5 5 8 -4 8 -10 0 -11 3 -2 13 6 8 8
17 4 21 -12 12 -12 36 0 36 7 0 5 5 -3 10 -13 8 -13 10 0 10 11 0 11 3 2 12
-9 9 -8 16 5 30 11 12 12 18 3 18 -7 0 -10 7 -6 17 4 9 1 20 -6 25 -10 6 -8 8
5 8 15 0 16 3 6 21 -9 17 -8 20 2 14 9 -6 11 -3 6 8 -4 10 -1 17 6 17 8 0 7 3
-2 9 -12 8 -12 12 -2 25 11 13 11 16 0 16 -11 0 -11 2 1 10 12 8 12 10 1 10
-11 0 -11 3 -1 15 9 11 9 15 1 15 -7 0 -9 5 -6 10 4 6 12 8 18 4 7 -3 4 1 -5
8 -15 13 -15 15 0 24 13 9 13 12 2 19 -9 6 -11 4 -5 -5 5 -9 4 -11 -4 -6 -8 5
-7 13 4 28 11 16 12 25 3 35 -8 10 -7 13 3 13 11 0 11 2 -1 10 -8 5 -10 10 -4
10 6 0 11 10 10 23 -1 12 3 25 9 29 6 5 5 8 -3 8 -9 0 -10 5 -3 18 12 22 17
94 8 109 -4 7 0 16 10 22 10 6 12 11 6 11 -7 0 -13 5 -13 11 0 5 6 7 13 3 9
-6 9 -4 -1 8 -9 11 -10 18 -2 23 5 3 8 17 6 31 -3 13 -1 24 4 24 5 0 7 7 4 15
-4 8 -1 22 5 29 8 9 8 16 2 20 -6 4 -8 13 -5 21 4 8 9 13 13 11 4 -3 6 8 5 22
-2 36 6 53 20 45 6 -4 5 1 -3 10 -8 11 -9 17 -3 17 7 0 9 7 5 17 -4 10 -2 14
5 9 7 -4 10 1 7 13 -2 11 3 22 12 25 8 4 13 13 9 21 -5 13 4 19 25 17 3 -1 4
11 2 26 -3 19 -2 23 5 14 7 -11 11 -8 15 9 4 13 9 20 12 17 4 -3 18 5 32 18
14 13 34 24 44 24 11 0 19 5 19 11 0 5 5 7 10 4 6 -3 10 -1 10 5 0 8 6 8 20 0
16 -9 18 -8 14 5 -6 14 6 20 30 16 4 -1 15 4 24 11 9 7 13 8 9 2 -3 -6 0 -11
8 -11 8 0 12 4 9 8 -2 4 0 10 6 14 5 3 10 0 10 -7 0 -10 2 -10 9 1 6 9 10 10
16 2 5 -9 10 -9 20 -1 12 10 46 21 73 22 6 1 12 6 12 12 0 7 3 7 8 1 9 -13 35
-18 27 -5 -4 6 6 7 26 3 26 -5 31 -3 24 8 -5 8 -5 11 0 7 4 -4 15 -2 23 5 10
8 13 8 9 1 -4 -7 0 -15 9 -18 8 -3 13 -2 9 3 -8 14 18 20 39 9 13 -7 16 -7 11
1 -4 8 2 10 19 7 14 -3 26 0 26 5 0 5 5 9 11 9 5 0 8 -4 5 -8 -3 -5 1 -9 9 -9
8 0 12 4 9 9 -3 4 2 8 11 8 10 0 13 -5 9 -12 -5 -9 -2 -9 9 1 9 7 17 10 17 6
0 -4 6 -3 13 3 7 6 18 7 27 2 7 -4 23 -5 34 0 34 13 38 12 47 -2 7 -10 9 -9 9
5 0 14 4 16 19 7 14 -7 21 -6 24 3 3 7 6 8 6 1 1 -6 12 -9 26 -6 14 2 23 8 20
11 -5 9 26 8 40 -1 14 -8 57 -4 74 6 10 7 12 6 6 -4 -6 -10 -3 -12 12 -8 11 3
28 1 38 -5 12 -6 16 -6 11 1 -9 14 19 23 33 9 6 -6 11 -7 11 -3 0 5 6 3 14 -3
8 -7 17 -8 19 -4 6 10 90 9 106 -1 6 -4 11 -4 11 1 0 4 18 8 40 8 22 0 40 -3
40 -7 0 -5 5 -8 11 -8 5 0 7 5 3 11 -4 8 -1 8 13 1 12 -7 24 -7 37 0 12 7 17
7 12 0 -8 -13 17 -22 34 -12 8 5 21 5 31 0 9 -5 19 -6 23 -3 10 10 36 12 36 3
0 -10 46 -7 57 3 3 4 13 2 20 -5 11 -9 17 -9 24 3 8 12 10 12 19 -1 5 -8 10
-10 10 -5 0 6 5 3 10 -5 5 -8 10 -10 10 -3 0 9 19 11 40 3 3 -1 13 -2 23 -1 9
1 17 -4 17 -11 0 -10 2 -10 9 1 8 12 12 12 24 2 11 -8 17 -9 22 -1 5 8 11 7
23 -2 13 -11 14 -11 7 2 -8 13 -7 13 8 1 14 -11 17 -11 17 0 0 12 2 12 9 0 6
-9 10 -10 16 -2 5 9 11 9 19 2 7 -6 36 -12 64 -13 33 -2 53 -7 57 -16 4 -10 9
-11 18 -4 6 5 21 8 32 6 11 -2 43 -4 70 -5 28 -1 54 -4 60 -7 5 -3 28 -7 50
-8 22 -1 40 -3 40 -4 0 -9 35 -5 35 3 0 7 5 4 11 -6 10 -18 11 -18 32 0 11 10
17 13 14 7 -4 -7 0 -15 9 -18 8 -3 12 -2 9 4 -3 6 -1 10 4 10 6 0 11 -6 11
-12 0 -8 3 -9 8 -3 11 15 32 17 32 3 0 -9 4 -8 10 2 8 12 10 12 10 1 0 -11 5
-10 24 2 17 12 26 13 35 4 6 -6 11 -7 11 -3 0 5 8 2 17 -5 11 -10 14 -10 9 -1
-8 13 -7 13 40 16 17 1 38 7 47 14 12 10 16 10 20 0 4 -11 6 -10 6 0 1 7 6 10
11 7 6 -3 10 -2 10 4 0 5 12 9 28 9 15 -1 36 2 47 7 24 10 71 45 60 45 -4 0
-3 6 3 13 12 14 12 57 0 57 -4 0 -8 10 -8 23 0 12 -9 28 -20 35 -11 7 -20 19
-20 26 0 8 -5 18 -12 22 -7 5 -8 3 -3 -7 8 -12 6 -12 -8 0 -9 7 -17 20 -17 27
0 8 -5 14 -10 14 -6 0 -23 11 -37 24 -15 14 -30 23 -35 20 -4 -3 -8 0 -8 5 0
6 -9 11 -21 11 -11 0 -18 4 -14 9 3 6 -4 8 -15 6 -11 -2 -24 3 -30 13 -9 16
-9 15 -10 -2 0 -15 -3 -16 -15 -6 -8 7 -15 9 -15 4 0 -5 -5 -2 -10 6 -7 11
-10 11 -10 2 0 -10 -5 -10 -21 -1 -12 6 -36 9 -54 7 -19 -2 -32 0 -29 4 3 4
-12 5 -31 3 -26 -4 -34 -2 -29 7 5 7 3 8 -7 3 -18 -12 -98 -14 -105 -3 -3 4
-10 5 -16 2 -18 -11 -72 -11 -80 0 -5 7 -8 6 -8 -3 0 -11 -3 -11 -15 -1 -12
10 -15 10 -15 -1 0 -9 -3 -10 -11 -2 -6 6 -23 8 -45 3 -19 -5 -32 -4 -28 1 8
13 -10 11 -24 -3 -9 -9 -12 -9 -12 1 0 11 -3 11 -15 1 -11 -9 -15 -9 -15 -1 0
7 -5 9 -12 4 -20 -12 -38 -12 -38 -1 0 6 -7 4 -17 -3 -15 -12 -16 -12 -8 1 8
13 7 13 -8 1 -13 -10 -20 -11 -30 -2 -8 6 -17 7 -21 3 -11 -10 -30 -9 -38 3
-5 7 -11 7 -15 0 -11 -15 -31 -17 -52 -5 -10 5 -21 6 -25 3 -10 -10 -66 -11
-66 -1 0 5 -6 6 -12 1 -18 -11 -41 -13 -53 -5 -13 9 -37 9 -53 -2 -8 -5 -20
-2 -30 6 -9 7 -29 13 -44 12 -16 0 -28 3 -28 7 0 5 -6 9 -13 9 -7 0 -20 9 -30
20 -9 11 -14 20 -10 20 3 0 -2 10 -13 22 -12 13 -13 18 -4 13 13 -8 13 -6 2 8
-8 9 -11 21 -7 27 3 5 2 10 -3 10 -6 0 -8 9 -5 20 3 11 0 20 -6 20 -9 0 -9 5
0 21 9 17 8 20 -2 14 -8 -5 -10 -4 -5 4 12 18 15 81 4 81 -5 0 -6 6 -1 13 4 6
8 20 9 30 1 9 2 18 4 20 2 3 10 54 13 92 1 17 7 33 12 37 6 5 5 8 -2 8 -7 0
-13 5 -13 11 0 5 5 7 12 3 8 -5 9 -2 5 11 -4 9 -2 25 5 33 11 13 11 14 -2 7
-12 -7 -13 -6 -5 6 6 8 12 28 14 44 2 17 8 33 15 37 8 6 7 8 -2 8 -9 0 -10 5
-3 18 5 10 6 24 1 32 -5 8 -4 22 1 32 7 13 6 18 -3 18 -9 0 -9 3 2 10 11 7 11
10 2 10 -7 0 -12 8 -11 18 4 27 -12 83 -22 77 -5 -4 -6 1 -3 9 3 9 1 16 -5 16
-6 0 -11 9 -11 21 0 11 -4 18 -8 15 -5 -3 -16 4 -25 15 -9 10 -13 19 -9 19 4
1 -10 9 -31 19 -20 9 -34 20 -30 24 5 6 -28 12 -49 8 -5 0 -8 4 -8 10 0 6 -7
8 -16 5 -8 -3 -13 -2 -10 3 7 11 -37 11 -58 -1z"/>
<path d="M3066 9945 c4 -9 0 -15 -9 -15 -9 0 -19 -5 -23 -12 -5 -7 -2 -9 7 -4
10 6 10 4 -1 -6 -22 -19 -76 -93 -62 -84 17 10 15 0 -4 -18 -8 -9 -11 -16 -5
-16 6 0 11 -5 11 -11 0 -5 -4 -8 -9 -5 -5 3 -11 -1 -14 -8 -3 -8 -1 -17 6 -20
9 -3 8 -5 -1 -5 -7 -1 -10 -5 -7 -11 3 -5 0 -10 -7 -10 -9 0 -9 -3 2 -10 8 -5
10 -10 4 -10 -6 0 -10 -13 -9 -30 1 -16 -3 -30 -9 -30 -6 0 -5 -4 3 -9 10 -7
11 -13 2 -30 -9 -16 -9 -21 0 -21 8 0 8 -4 -1 -15 -10 -12 -10 -15 0 -15 10 0
10 -3 1 -14 -7 -8 -8 -17 -3 -20 5 -3 8 -16 8 -28 -1 -13 2 -31 6 -40 6 -12 5
-18 -4 -18 -9 0 -9 -3 -1 -11 6 -6 9 -18 6 -27 -5 -11 -3 -13 8 -7 12 7 12 6
1 -7 -9 -11 -10 -18 -2 -23 7 -4 7 -12 0 -25 -7 -13 -7 -21 0 -25 6 -4 7 -11
3 -18 -12 -20 -10 -58 4 -53 9 4 7 -4 -4 -21 -12 -18 -13 -24 -5 -19 12 7 12
4 2 -14 -6 -12 -9 -28 -6 -36 4 -10 2 -12 -6 -8 -8 5 -9 2 -5 -9 3 -9 2 -19
-4 -23 -6 -3 -8 -11 -6 -18 6 -14 -28 -58 -37 -48 -4 3 -4 -1 -1 -10 4 -9 0
-18 -10 -22 -9 -3 -13 -10 -10 -16 3 -5 -1 -10 -9 -10 -9 0 -16 -7 -16 -15 0
-9 -6 -12 -17 -8 -10 4 -14 2 -9 -5 6 -10 -30 -28 -47 -24 -5 1 -6 -2 -3 -7 7
-11 -55 -42 -69 -33 -5 3 -3 -3 5 -14 8 -10 10 -16 5 -11 -4 4 -17 -1 -28 -10
-12 -11 -17 -12 -12 -4 5 10 4 12 -3 7 -7 -4 -12 -14 -12 -21 0 -9 -6 -12 -17
-8 -11 4 -14 3 -9 -5 6 -11 -11 -17 -36 -13 -4 0 -5 -6 -2 -14 4 -10 0 -15
-11 -15 -9 0 -13 -4 -10 -10 3 -5 1 -10 -4 -10 -14 0 -51 -37 -51 -50 0 -5 -6
-7 -14 -4 -9 3 -16 -4 -20 -21 -4 -16 -11 -23 -18 -19 -8 5 -9 2 -5 -9 4 -10
2 -16 -5 -14 -6 1 -17 -8 -23 -20 -7 -13 -15 -20 -18 -16 -4 3 -7 -1 -7 -11 0
-9 -7 -19 -15 -22 -8 -4 -13 -10 -10 -14 3 -4 -2 -11 -11 -14 -9 -3 -12 -11
-8 -18 5 -8 2 -9 -11 -4 -15 5 -16 4 -5 -9 10 -12 10 -15 -4 -15 -10 0 -15 -4
-11 -9 3 -5 -4 -16 -15 -24 -11 -7 -17 -17 -14 -20 4 -4 1 -13 -5 -21 -7 -8
-9 -21 -5 -27 4 -8 3 -9 -4 -5 -7 4 -12 2 -12 -4 0 -6 -4 -9 -9 -6 -5 4 -7 -3
-4 -14 3 -13 -1 -22 -11 -26 -13 -5 -14 -9 -5 -20 10 -12 9 -13 -5 -8 -12 5
-15 2 -10 -10 4 -10 0 -18 -11 -22 -13 -5 -14 -9 -3 -15 10 -7 11 -9 0 -9 -7
0 -10 -4 -7 -10 3 -5 1 -10 -5 -10 -6 0 -9 -4 -5 -9 3 -5 1 -12 -5 -16 -6 -4
-8 -11 -5 -16 4 -5 1 -9 -4 -9 -6 0 -11 -5 -11 -11 0 -5 6 -7 13 -3 8 5 8 3
-2 -9 -7 -9 -17 -14 -22 -11 -5 3 -6 -2 -2 -11 3 -10 0 -21 -8 -26 -12 -7 -12
-9 0 -9 11 0 11 -3 1 -15 -6 -8 -9 -19 -5 -25 3 -5 1 -10 -5 -10 -6 0 -8 -4
-5 -10 3 -5 0 -10 -7 -10 -9 0 -9 -3 2 -10 13 -9 13 -12 -2 -24 -13 -10 -15
-15 -6 -24 9 -9 8 -12 -6 -12 -15 0 -16 -3 -7 -14 9 -10 9 -16 1 -21 -6 -4 -9
-13 -6 -21 3 -7 2 -15 -2 -18 -9 -6 -8 -118 2 -134 4 -7 4 -16 1 -22 -3 -5 -1
-10 4 -10 6 0 11 -11 11 -24 0 -14 5 -28 11 -31 6 -4 8 -14 5 -22 -4 -8 -1
-11 5 -8 6 4 13 -2 16 -14 3 -12 9 -21 14 -21 4 0 20 -11 34 -25 14 -14 25
-23 25 -19 0 4 8 -3 19 -14 10 -12 25 -22 33 -22 9 0 27 -9 41 -20 16 -13 28
-16 32 -10 4 6 12 4 22 -6 13 -12 17 -13 24 -2 7 11 9 11 9 0 0 -8 6 -12 13
-9 6 2 24 -2 40 -10 15 -7 27 -11 27 -7 0 4 8 0 17 -7 15 -12 16 -12 8 1 -7
12 -6 13 6 3 9 -7 24 -14 35 -16 10 -1 25 -6 32 -10 6 -5 16 -6 21 -2 5 3 12
1 16 -4 3 -6 13 -7 22 -4 10 4 14 2 10 -4 -4 -6 4 -11 18 -12 56 -4 63 -6 58
-14 -3 -5 1 -7 8 -6 24 3 79 -13 79 -23 0 -6 8 -4 18 3 9 7 13 9 9 4 -5 -6 11
-14 40 -20 50 -10 59 -26 41 -67 -5 -10 -3 -18 4 -20 8 -3 8 -9 -1 -25 -7 -14
-8 -24 -1 -28 5 -3 10 -11 10 -16 0 -6 -5 -7 -12 -3 -7 5 -8 3 -2 -7 12 -19
12 -99 1 -99 -5 0 -3 -8 4 -17 12 -14 12 -16 0 -8 -11 6 -13 4 -8 -8 3 -8 -1
-21 -8 -27 -8 -7 -12 -16 -9 -21 3 -5 0 -8 -7 -7 -7 2 -13 -4 -14 -12 -1 -8
-6 -14 -13 -12 -11 2 -16 -10 -13 -30 0 -4 -6 -5 -14 -2 -8 4 -15 1 -15 -6 0
-6 -4 -8 -10 -5 -5 3 -10 -1 -10 -9 0 -16 -7 -19 -43 -19 -14 0 -15 -2 -5 -15
10 -12 10 -14 1 -8 -7 4 -13 2 -13 -3 0 -6 -7 -11 -16 -11 -8 0 -13 -4 -9 -9
3 -6 -4 -8 -15 -6 -18 3 -25 -6 -21 -28 1 -5 -4 -5 -10 -1 -6 3 -22 -6 -35
-21 -13 -16 -24 -24 -24 -20 0 4 -8 -2 -19 -13 -10 -12 -25 -22 -32 -22 -11 0
-11 -2 1 -10 13 -8 12 -10 -3 -10 -10 0 -20 -7 -23 -15 -4 -8 -10 -12 -15 -9
-5 3 -9 -2 -9 -10 0 -9 -7 -16 -16 -16 -8 0 -12 -4 -9 -10 3 -6 -4 -10 -17
-10 -17 0 -19 -3 -9 -9 11 -7 9 -11 -8 -20 -12 -7 -19 -16 -16 -22 4 -5 -1 -9
-10 -9 -9 0 -14 -3 -12 -7 3 -5 -5 -17 -16 -28 -11 -11 -16 -13 -12 -5 5 9 5
12 -1 7 -5 -5 -10 -13 -10 -18 -1 -5 -2 -13 -3 -19 0 -5 -8 -10 -17 -10 -8 0
-13 -4 -10 -9 3 -5 -1 -11 -9 -15 -8 -3 -15 -12 -15 -21 0 -8 -5 -15 -11 -15
-5 0 -8 -4 -5 -8 3 -5 -4 -19 -15 -30 -11 -12 -17 -22 -14 -22 4 0 -1 -7 -9
-16 -9 -8 -16 -22 -16 -30 0 -9 -5 -12 -11 -8 -8 5 -10 -1 -7 -19 3 -15 1 -24
-4 -21 -5 3 -13 -8 -19 -25 -6 -17 -15 -31 -21 -31 -5 0 -7 -4 -3 -9 3 -5 1
-12 -5 -16 -6 -4 -8 -11 -5 -16 4 -5 0 -12 -9 -15 -9 -3 -12 -12 -9 -21 5 -12
3 -14 -7 -8 -8 5 -11 4 -7 -3 10 -15 -3 -43 -17 -35 -7 4 -7 1 1 -7 10 -11 9
-16 -5 -27 -10 -9 -11 -12 -2 -7 12 7 13 5 3 -8 -7 -8 -10 -18 -6 -21 3 -4 1
-7 -5 -7 -6 0 -9 -9 -7 -20 2 -11 0 -20 -5 -20 -5 0 -7 -9 -5 -20 2 -11 1 -20
-3 -20 -11 0 -8 -142 2 -159 7 -11 6 -12 -5 -5 -9 5 -8 -2 5 -20 11 -18 13
-26 5 -21 -11 6 -12 5 -1 -6 6 -7 12 -23 12 -36 0 -23 19 -74 31 -83 4 -3 9
-12 11 -20 2 -8 9 -21 16 -28 7 -8 9 -18 6 -24 -4 -7 -2 -8 4 -4 7 4 12 1 12
-9 0 -9 5 -13 10 -10 6 3 10 1 10 -5 0 -16 86 -96 99 -92 6 2 11 -2 11 -8 0
-7 7 -10 14 -7 9 4 13 1 10 -6 -3 -8 5 -13 18 -14 13 -1 24 -7 26 -13 2 -5 8
-8 13 -4 5 3 9 1 9 -5 0 -5 9 -8 20 -6 11 2 23 -1 26 -7 5 -7 2 -8 -6 -3 -8 5
-11 4 -7 -3 4 -5 16 -8 27 -5 12 3 20 0 20 -7 0 -7 8 -9 20 -5 14 4 20 2 18
-7 -2 -7 3 -12 11 -10 7 1 18 -1 25 -6 6 -4 18 -8 26 -7 8 0 21 -5 28 -12 7
-6 21 -10 32 -8 13 3 18 0 14 -7 -5 -7 -1 -9 9 -5 10 3 17 2 17 -3 0 -5 6 -7
14 -4 8 3 17 1 21 -5 3 -6 15 -11 26 -11 10 0 19 -4 19 -8 0 -5 7 -9 15 -10 8
-1 22 -3 30 -4 8 -1 15 -5 15 -10 0 -4 5 -8 11 -8 5 0 7 6 3 13 -5 7 0 6 11
-3 10 -8 26 -16 37 -16 34 -3 38 -4 38 -15 0 -8 -4 -8 -14 0 -10 8 -16 9 -21
1 -4 -6 -3 -10 2 -9 4 1 13 0 18 -1 6 -1 17 -3 25 -4 8 0 14 -7 13 -13 -2 -7
1 -13 5 -13 4 0 8 -9 9 -20 1 -11 -3 -18 -8 -14 -12 7 -7 -19 6 -28 6 -5 4 -8
-5 -8 -13 0 -13 -1 0 -10 8 -5 10 -10 4 -10 -6 0 -10 -10 -9 -23 1 -12 -2 -28
-8 -34 -6 -9 -6 -13 2 -13 9 0 9 -5 1 -20 -8 -15 -8 -20 2 -21 7 0 4 -4 -7 -9
-11 -5 -14 -9 -6 -9 11 -1 11 -4 0 -18 -10 -11 -10 -14 -1 -9 13 8 17 -15 5
-28 -11 -11 -10 -60 2 -68 6 -5 3 -8 -7 -8 -11 0 -15 -5 -12 -14 3 -7 -2 -20
-10 -29 -8 -8 -12 -17 -9 -21 4 -3 1 -6 -6 -6 -7 0 -9 -4 -6 -10 6 -10 -9 -15
-30 -10 -5 1 -7 -1 -3 -5 8 -9 -23 -45 -34 -39 -4 3 -8 -2 -8 -10 0 -10 -6
-13 -17 -9 -12 5 -14 3 -8 -8 4 -8 4 -11 0 -6 -5 4 -19 0 -32 -8 -13 -9 -29
-13 -35 -9 -7 5 -8 3 -3 -6 6 -10 4 -12 -8 -7 -10 4 -14 2 -11 -6 2 -7 -5 -18
-17 -25 -17 -11 -20 -11 -14 0 3 7 0 4 -9 -6 -8 -10 -13 -23 -10 -27 3 -5 -2
-6 -10 -3 -10 4 -16 1 -16 -7 0 -7 -3 -10 -6 -6 -3 3 -14 -3 -25 -14 -11 -11
-25 -17 -31 -13 -7 5 -9 2 -5 -8 4 -12 1 -14 -15 -10 -14 3 -19 1 -14 -6 4 -7
2 -13 -3 -13 -6 -1 -15 -2 -20 -3 -5 0 -13 -5 -18 -10 -5 -5 -2 -6 7 -2 8 4 6
0 -4 -8 -11 -9 -24 -16 -29 -16 -4 0 -5 -5 -1 -12 5 -8 2 -9 -9 -5 -9 3 -16 3
-16 -1 3 -20 -2 -33 -11 -27 -9 6 -14 -8 -11 -28 1 -5 -3 -6 -8 -3 -13 9 -43
-24 -37 -40 3 -8 2 -13 -2 -11 -4 1 -8 -2 -9 -7 0 -5 -8 -13 -17 -18 -9 -5
-14 -13 -11 -18 3 -4 -2 -11 -11 -14 -8 -3 -14 -14 -12 -23 2 -10 -2 -17 -9
-16 -8 2 -10 -4 -6 -14 4 -11 3 -14 -5 -9 -8 4 -10 2 -6 -7 3 -8 0 -18 -6 -22
-9 -6 -9 -10 1 -16 11 -7 10 -9 -3 -9 -10 0 -17 -3 -16 -7 2 -13 -14 -67 -25
-80 -6 -9 -5 -13 4 -13 8 0 6 -5 -6 -14 -17 -12 -22 -30 -27 -113 -2 -24 -6
-29 -16 -21 -10 9 -11 6 -3 -16 6 -14 7 -26 2 -26 -5 0 -8 -11 -7 -25 2 -13
-1 -22 -6 -19 -5 3 -9 0 -7 -7 3 -29 -1 -40 -13 -33 -9 5 -9 2 1 -9 10 -13 11
-20 2 -30 -6 -8 -8 -17 -4 -20 3 -4 1 -7 -7 -7 -10 0 -10 -3 0 -15 10 -12 10
-15 0 -15 -8 0 -10 -3 -7 -7 4 -3 1 -13 -6 -21 -10 -13 -9 -14 3 -7 13 8 13 7
1 -8 -11 -14 -11 -17 0 -17 11 0 12 -2 1 -9 -7 -4 -14 -22 -14 -40 -1 -17 -5
-34 -10 -37 -5 -3 -3 -13 4 -22 7 -9 8 -13 2 -9 -8 4 -12 -4 -12 -26 0 -55 -6
-87 -16 -87 -5 0 -1 -7 10 -15 13 -11 14 -14 4 -13 -11 2 -14 -5 -12 -30 1
-18 -1 -31 -5 -29 -5 3 -8 -21 -8 -53 0 -32 -3 -56 -7 -54 -4 3 -8 1 -8 -5 0
-5 6 -12 13 -14 9 -4 8 -8 -3 -16 -9 -7 -11 -14 -5 -19 13 -10 18 -35 5 -27
-5 3 -10 1 -10 -4 0 -6 6 -11 13 -11 7 0 8 -3 2 -8 -5 -4 -10 -23 -10 -42 1
-19 -2 -47 -6 -63 -5 -16 -4 -25 2 -22 5 4 9 1 9 -4 0 -6 -6 -11 -12 -11 -9 0
-8 -4 2 -10 12 -8 13 -11 1 -19 -8 -5 -9 -11 -3 -15 6 -3 8 -15 5 -26 -3 -11
0 -27 7 -35 11 -13 10 -14 -6 -8 -17 6 -18 5 -5 -11 13 -15 13 -19 0 -27 -10
-6 -10 -9 -1 -9 6 0 12 -5 12 -11 0 -5 -6 -7 -12 -3 -10 5 -10 4 -1 -6 6 -7 9
-19 6 -28 -4 -8 -2 -13 3 -10 5 4 9 -4 9 -17 0 -19 -3 -21 -15 -12 -11 9 -11
6 2 -14 9 -15 14 -30 11 -33 -11 -10 -9 -56 2 -56 5 0 3 -5 -5 -10 -10 -6 -11
-10 -2 -10 14 0 12 -21 -3 -32 -6 -5 -5 -8 3 -8 6 0 12 -9 12 -21 0 -13 -4
-18 -12 -13 -9 5 -8 2 1 -9 8 -10 11 -20 8 -24 -4 -3 -2 -14 4 -24 7 -13 6
-19 -1 -19 -7 0 -8 -6 -2 -18 5 -9 8 -34 7 -54 -1 -21 2 -38 8 -38 5 0 4 -7
-3 -15 -9 -10 -9 -15 -1 -15 13 0 10 -22 -4 -32 -6 -5 -6 -8 1 -8 11 0 16 -49
17 -158 1 -28 4 -52 7 -52 5 0 9 -37 10 -105 1 -16 7 -36 13 -44 10 -12 9 -13
-3 -6 -13 8 -13 7 -1 -8 7 -9 10 -17 6 -17 -4 0 -2 -7 5 -15 7 -8 10 -15 6
-15 -3 0 3 -16 14 -36 11 -19 17 -33 12 -30 -5 3 -9 -1 -9 -9 0 -8 3 -14 6
-13 18 2 31 -3 31 -12 0 -5 9 -19 19 -29 14 -14 22 -16 31 -7 10 8 11 8 5 -3
-13 -23 93 -7 114 18 14 16 20 18 30 8 10 -9 11 -8 6 5 -5 11 4 24 32 42 21
14 34 26 29 26 -5 0 -2 8 5 17 12 14 12 16 -1 9 -9 -5 -8 -2 2 7 13 10 15 16
6 25 -7 7 -8 12 -2 12 5 0 10 8 11 18 2 54 8 82 18 82 5 0 3 5 -5 10 -11 7
-12 10 -2 10 9 0 11 7 7 19 -3 11 -1 23 6 26 8 6 8 9 0 15 -8 5 -9 14 -2 33 8
20 7 27 -2 27 -8 0 -7 4 3 10 13 9 13 10 0 10 -13 0 -13 1 0 10 13 9 13 10 0
10 -12 0 -13 2 -1 9 10 7 10 10 1 13 -10 3 -10 9 -1 26 9 17 9 22 0 22 -8 0
-8 4 1 15 8 9 8 15 2 15 -6 0 -9 16 -7 38 1 20 -2 43 -7 50 -7 8 -7 12 2 12 7
0 10 7 6 15 -3 8 -9 22 -13 32 -5 12 -3 14 8 8 11 -7 12 -6 3 6 -6 8 -10 24
-8 37 2 12 -1 22 -7 22 -8 0 -8 5 1 15 10 12 10 15 -1 15 -11 0 -11 2 1 10 9
6 10 10 3 10 -8 0 -11 13 -9 36 1 19 -1 37 -5 40 -5 3 -4 16 1 29 7 17 6 25
-1 25 -8 0 -8 4 0 14 8 10 9 16 1 21 -6 3 -8 10 -5 15 3 5 1 11 -5 15 -6 4 -7
13 -1 23 6 11 6 24 0 35 -7 12 -6 17 2 17 8 0 7 5 -2 17 -12 15 -12 16 1 8 12
-7 13 -6 4 6 -7 8 -12 30 -12 49 0 19 -1 40 -2 45 -1 6 -1 34 0 64 1 40 -1 51
-11 45 -7 -4 -5 3 4 16 15 22 15 25 -1 44 -9 11 -12 16 -5 12 9 -5 11 3 9 28
-1 20 2 38 8 40 7 3 6 5 -1 5 -9 1 -10 8 -3 26 7 18 6 25 -3 25 -8 0 -7 4 3
10 13 9 13 11 0 20 -10 6 -11 10 -2 10 16 0 16 27 0 33 -9 4 -8 6 2 6 11 1 15
13 15 46 0 25 -4 45 -8 45 -5 0 -5 6 2 13 6 8 9 23 6 35 -2 13 1 22 8 22 7 0
6 4 -3 10 -10 6 -11 10 -2 10 6 0 12 5 12 11 0 5 -4 7 -10 4 -7 -4 -7 3 0 19
5 14 7 26 4 26 -4 0 0 8 7 17 12 15 12 16 -1 8 -13 -8 -13 -6 -1 8 7 9 13 32
13 52 0 20 5 35 12 35 7 0 6 4 -3 9 -9 6 -10 11 -3 15 6 4 9 13 5 21 -3 10 1
15 13 15 14 0 15 3 6 8 -10 7 -10 15 -2 36 5 15 7 32 4 38 -5 7 -2 8 6 3 10
-6 12 -4 7 7 -3 9 0 21 6 28 9 10 9 11 -3 6 -12 -6 -12 -5 1 6 9 7 14 19 12
26 -3 6 1 12 9 12 10 0 9 3 -2 10 -8 5 -10 10 -4 10 6 0 17 18 24 40 7 21 16
37 20 35 4 -2 6 7 4 20 -1 18 3 25 14 25 10 0 13 3 7 8 -6 4 -10 13 -9 20 1 6
2 16 3 22 0 5 6 9 12 7 6 -1 13 11 16 27 2 16 14 37 26 48 12 11 16 17 10 13
-9 -4 -11 -1 -7 9 3 9 10 14 14 11 5 -3 12 4 15 16 4 11 13 18 20 15 18 -7 51
30 33 37 -7 4 -1 4 15 2 15 -2 27 1 27 6 0 6 4 8 9 5 5 -3 11 0 14 8 4 9 14
12 28 9 17 -5 21 -3 17 9 -4 10 0 14 15 13 12 -1 31 2 41 8 16 8 18 6 14 -11
-3 -11 -2 -26 3 -33 4 -7 4 -20 -1 -29 -5 -9 -5 -22 0 -30 6 -9 5 -17 -3 -22
-9 -6 -8 -8 2 -8 11 0 11 -3 1 -15 -9 -11 -9 -15 -1 -15 7 0 9 -5 5 -12 -10
-16 -15 -59 -5 -54 3 3 7 -4 7 -14 0 -10 -3 -17 -6 -15 -3 2 -5 -68 -5 -156 0
-94 -4 -159 -9 -159 -6 0 -5 -5 2 -12 16 -16 15 -31 0 -22 -9 5 -9 2 1 -9 7
-9 10 -17 5 -17 -12 0 -11 -93 1 -102 7 -5 7 -8 0 -8 -6 0 -9 -25 -8 -60 2
-45 -1 -59 -10 -55 -7 4 -3 -1 7 -9 11 -9 15 -16 8 -16 -6 0 -9 -6 -6 -14 3
-8 0 -25 -7 -38 -11 -21 -11 -22 4 -10 14 12 15 11 8 -15 -4 -15 -6 -34 -3
-42 3 -8 0 -11 -7 -7 -7 5 -9 1 -5 -8 3 -9 10 -13 15 -10 5 3 6 -2 3 -10 -3
-9 -10 -13 -15 -10 -5 3 -6 -2 -3 -10 3 -9 11 -13 18 -9 6 3 3 -2 -6 -13 -14
-16 -15 -23 -5 -33 9 -9 9 -14 -3 -21 -9 -6 -10 -10 -3 -10 13 0 12 -18 -1
-39 -7 -11 -5 -13 9 -7 18 6 18 6 2 -12 -13 -15 -14 -21 -4 -31 9 -11 9 -14
-1 -18 -10 -4 -10 -8 -1 -19 9 -11 8 -14 -2 -14 -12 0 -12 -2 0 -9 9 -6 10
-10 2 -16 -9 -5 -9 -10 0 -21 9 -11 8 -14 -2 -14 -11 0 -11 -2 0 -9 12 -8 12
-12 2 -25 -10 -12 -10 -16 -2 -16 7 0 9 -5 5 -12 -11 -17 -11 -58 -1 -58 5 0
4 -7 -3 -15 -10 -12 -10 -15 0 -15 9 0 9 -4 2 -13 -7 -8 -7 -18 -2 -27 5 -8 5
-21 -1 -32 -7 -13 -6 -18 2 -18 8 0 7 -5 -2 -17 -12 -15 -12 -16 1 -8 12 7 13
6 3 -6 -10 -12 -10 -18 -1 -27 7 -7 8 -12 3 -12 -14 0 -14 -113 -1 -122 7 -5
7 -8 -2 -8 -7 0 -10 -4 -7 -10 3 -5 0 -10 -7 -10 -9 0 -10 -2 -2 -8 8 -4 11
-32 9 -74 -2 -46 1 -68 9 -68 7 0 6 -3 -2 -9 -8 -5 -11 -19 -7 -40 3 -20 2
-30 -4 -27 -6 4 -7 -4 -1 -23 5 -17 4 -33 -2 -39 -6 -6 -6 -12 1 -16 7 -4 7
-15 1 -30 -5 -13 -6 -27 -2 -30 10 -11 9 -46 -2 -46 -6 0 -5 -5 2 -12 14 -14
16 -32 3 -24 -4 3 -5 -12 -1 -34 4 -24 3 -43 -4 -51 -8 -9 -8 -10 2 -5 6 4 12
2 12 -3 0 -6 -5 -11 -11 -11 -5 0 -7 -5 -4 -11 10 -16 12 -79 2 -79 -4 0 -3
-9 3 -19 13 -25 13 -34 -1 -25 -8 5 -9 2 -1 -12 6 -11 7 -27 1 -42 -6 -14 -5
-21 1 -17 5 3 7 -8 5 -26 -2 -18 0 -41 6 -51 6 -12 6 -18 -1 -18 -5 0 -10 5
-10 12 0 6 -3 8 -6 5 -4 -4 -2 -12 4 -19 6 -7 11 -16 11 -20 1 -5 1 -10 2 -13
4 -21 1 -64 -4 -79 -6 -14 -4 -17 9 -12 13 5 14 3 7 -6 -6 -7 -9 -22 -6 -33 2
-11 4 -37 4 -58 0 -24 4 -35 11 -31 7 5 8 2 2 -7 -12 -19 -14 -39 -4 -39 5 0
7 -8 5 -17 -1 -10 2 -24 8 -31 6 -8 6 -12 -1 -12 -7 0 -8 -10 -2 -29 4 -16 6
-32 2 -35 -3 -3 0 -6 8 -6 10 0 10 -3 0 -15 -7 -8 -8 -15 -4 -15 8 0 14 -40
14 -97 0 -13 6 -23 13 -23 8 0 7 -4 -3 -10 -8 -5 -10 -10 -5 -10 6 0 10 -28
11 -63 1 -62 5 -88 14 -97 3 -3 10 -14 17 -25 6 -11 17 -19 24 -17 6 2 25 -1
40 -7 16 -5 31 -6 34 -1 3 5 17 7 30 4 15 -3 25 0 25 7 0 8 4 8 15 -1 12 -10
15 -10 15 0 0 7 7 10 16 6 8 -3 12 -2 9 4 -3 6 1 10 10 10 8 0 20 11 25 24 5
13 15 28 22 33 17 10 47 49 31 40 -8 -5 -11 -1 -10 12 0 11 6 19 11 18 6 -1
10 7 11 18 0 11 4 26 8 32 6 9 3 11 -7 7 -14 -5 -14 -3 -1 22 13 25 13 30 -3
48 -10 12 -12 16 -3 11 11 -6 13 -3 9 13 -4 13 -1 22 5 22 7 0 5 5 -3 10 -8 5
-10 10 -4 10 15 0 6 82 -9 93 -7 5 -3 7 11 4 19 -5 21 -3 11 9 -6 8 -9 23 -6
34 3 11 0 20 -6 20 -8 0 -8 3 -2 8 15 10 19 46 5 37 -9 -6 -9 -2 -1 14 9 16 9
21 -1 21 -8 0 -9 3 -3 8 14 10 19 46 6 37 -14 -8 -1 27 13 37 8 5 7 8 -1 8 -8
0 -11 39 -10 133 0 74 -3 138 -6 144 -4 6 0 14 9 17 12 5 14 9 5 20 -6 7 -10
32 -8 55 2 22 -1 41 -5 41 -5 0 -6 5 -3 10 4 6 12 7 18 3 9 -5 9 -3 1 8 -13
17 -13 138 0 158 6 9 5 12 -1 8 -7 -5 -11 7 -11 31 0 20 5 40 11 44 8 5 8 8 1
8 -12 0 -13 278 -1 297 4 6 3 15 -3 18 -8 5 -7 11 1 21 9 11 9 14 0 14 -8 0
-9 5 -1 19 7 14 6 21 -3 24 -9 3 -9 7 0 17 7 7 9 20 5 29 -4 9 -7 23 -6 31 1
8 2 23 3 33 1 11 6 16 14 12 6 -4 4 0 -5 8 -13 10 -15 16 -6 25 9 9 9 12 -1
12 -7 0 -9 5 -4 13 12 20 12 37 0 37 -8 0 -8 3 -2 8 13 9 19 46 7 38 -6 -4 -5
7 1 24 10 25 9 33 -3 40 -8 5 -10 10 -4 10 7 0 11 77 12 233 3 237 3 312 1
325 -4 25 2 42 14 36 9 -6 9 -5 1 7 -15 19 -16 99 -1 99 6 0 2 7 -9 15 -10 8
-14 15 -9 15 6 0 9 25 9 57 -1 34 3 61 10 65 8 6 8 8 0 8 -16 0 -16 260 0 260
6 0 6 4 -2 9 -14 9 -13 32 3 43 6 5 6 8 -2 8 -15 0 -14 60 1 60 8 0 8 3 1 8
-16 10 -17 54 -2 45 7 -3 4 3 -6 14 -13 15 -15 23 -7 28 9 6 9 10 -1 16 -11 7
-11 9 -1 9 7 0 12 7 10 16 -2 10 3 19 10 21 6 3 12 0 12 -6 0 -6 6 -8 14 -5 7
3 21 -2 30 -11 9 -9 16 -11 16 -5 0 11 9 5 51 -32 12 -11 19 -13 19 -6 0 7 10
-2 23 -19 12 -16 27 -32 32 -34 6 -2 9 -8 7 -13 -2 -5 4 -6 13 -3 14 6 20 -9
16 -35 0 -5 5 -7 12 -5 7 1 12 -7 11 -20 0 -12 4 -21 9 -20 5 1 14 -11 20 -28
6 -16 16 -36 24 -43 18 -18 17 -27 -2 -12 -13 11 -14 10 -9 -4 3 -9 9 -16 13
-16 4 0 8 -6 9 -12 5 -39 9 -55 20 -74 9 -18 22 -61 35 -120 2 -7 9 -20 17
-30 9 -11 10 -15 3 -10 -7 4 -13 2 -13 -3 0 -6 6 -11 13 -11 9 0 8 -3 -2 -9
-11 -7 -11 -9 0 -13 7 -2 14 -22 15 -44 1 -21 3 -39 4 -39 1 0 3 -19 5 -42 2
-23 9 -51 15 -62 7 -14 7 -22 0 -26 -8 -5 -7 -11 1 -21 9 -11 8 -14 -2 -14
-12 0 -12 -2 0 -9 9 -6 12 -21 9 -44 -3 -28 -1 -34 12 -29 13 5 13 3 2 -10 -7
-9 -9 -19 -4 -22 10 -6 8 -59 -3 -77 -5 -7 -4 -10 3 -5 7 4 10 -4 10 -22 -1
-16 2 -34 6 -41 4 -6 2 -11 -5 -11 -10 0 -10 -3 -2 -11 6 -6 9 -17 7 -24 -3
-7 0 -16 6 -20 8 -5 8 -11 -1 -21 -9 -11 -9 -14 0 -14 8 0 9 -5 1 -19 -7 -13
-7 -22 0 -26 5 -3 10 -11 10 -16 0 -6 -6 -7 -12 -3 -9 5 -9 2 1 -9 11 -14 11
-17 0 -17 -11 0 -11 -2 -1 -9 14 -9 13 -32 -3 -43 -5 -4 -1 -8 10 -8 11 0 15
-4 10 -8 -13 -8 -13 -22 -1 -41 7 -11 5 -13 -9 -7 -15 5 -16 4 -5 -9 7 -8 10
-28 8 -45 -3 -16 -1 -30 3 -30 5 0 6 -7 3 -15 -4 -8 -11 -12 -18 -8 -8 5 -8 3
0 -8 15 -19 15 -111 0 -102 -6 4 -5 -1 3 -10 9 -11 10 -17 2 -17 -6 0 -11 -5
-11 -11 0 -5 5 -7 11 -3 7 4 7 -1 -1 -16 -8 -15 -8 -20 -1 -16 6 4 11 2 11 -3
0 -6 -4 -11 -9 -11 -10 0 -11 -8 -11 -83 1 -37 -2 -47 -12 -41 -10 5 -11 4 0
-7 15 -16 16 -33 2 -24 -12 7 -9 -17 3 -26 4 -3 2 -18 -4 -33 -11 -23 -10 -29
2 -37 12 -7 12 -9 -2 -9 -11 0 -15 -9 -13 -30 1 -16 -3 -30 -8 -30 -6 0 -5 -6
2 -15 10 -12 10 -15 -1 -15 -12 0 -12 -2 0 -9 9 -6 10 -10 2 -16 -9 -5 -9 -11
1 -23 11 -13 11 -14 -1 -7 -11 6 -13 3 -9 -13 4 -12 1 -22 -4 -22 -6 0 -4 -8
3 -17 10 -11 10 -14 2 -9 -7 4 -13 2 -13 -3 0 -6 5 -11 11 -11 5 0 7 -5 4 -10
-4 -6 -12 -7 -18 -3 -9 5 -9 3 -1 -8 6 -8 14 -23 18 -33 6 -17 5 -17 -11 -5
-9 8 -14 9 -10 3 4 -7 9 -28 13 -49 4 -29 3 -35 -8 -29 -10 6 -11 5 -1 -7 7
-8 13 -34 14 -57 2 -23 7 -42 11 -42 4 0 8 -5 8 -11 0 -5 -5 -7 -11 -3 -6 3
-3 -5 6 -20 11 -17 13 -26 6 -26 -7 0 -9 -5 -6 -10 4 -6 10 -8 14 -5 5 2 7 -7
5 -20 -1 -14 2 -25 8 -25 6 0 8 -7 5 -15 -4 -8 -1 -17 5 -21 7 -5 8 -2 3 6 -5
9 -4 11 4 6 6 -4 9 -11 6 -16 -3 -5 7 -23 23 -40 21 -21 35 -28 47 -23 13 4
16 3 10 -6 -6 -10 -3 -11 14 -2 16 9 21 9 21 -1 0 -8 3 -9 8 -3 11 15 32 17
32 3 1 -9 5 -8 13 3 7 9 20 15 29 13 12 -1 15 3 11 14 -4 10 -3 14 1 10 8 -7
29 11 56 46 13 18 13 19 0 11 -12 -6 -13 -5 -3 6 7 7 13 21 13 32 0 12 4 16
13 11 9 -5 9 -4 0 6 -9 10 -8 18 4 36 12 19 12 24 2 24 -8 0 -5 6 7 16 10 8
13 13 7 9 -10 -5 -11 0 -4 18 6 14 7 28 4 31 -4 3 -1 6 5 6 7 0 12 5 12 11 0
5 -5 7 -12 3 -7 -5 -8 -3 -2 7 5 8 9 25 9 39 0 14 4 31 8 38 5 7 4 12 -3 12
-6 0 -8 5 -5 11 11 17 13 59 2 59 -6 0 -5 5 1 13 7 8 7 18 2 27 -5 8 -6 19 -2
25 11 17 11 35 0 35 -6 0 -5 7 3 16 10 13 10 17 0 24 -9 5 -10 10 -2 14 6 4
11 12 11 17 0 6 -5 7 -11 3 -7 -4 -7 1 1 16 10 18 9 24 -1 31 -8 5 -9 9 -3 9
12 0 12 49 -1 69 -5 9 -4 12 2 8 7 -4 10 5 9 23 0 17 -5 30 -11 30 -7 0 -7 3
0 8 13 9 13 92 1 92 -6 0 -1 7 10 16 10 8 13 13 6 9 -9 -5 -12 0 -10 17 2 12
7 28 11 35 4 6 2 15 -4 19 -8 5 -9 3 -4 -6 5 -8 4 -11 -1 -7 -8 4 -11 62 -4
62 1 0 3 21 4 48 1 27 -2 47 -8 47 -7 0 -8 3 -1 8 14 10 16 45 2 54 -7 4 -7 8
-2 8 6 0 11 11 11 25 1 14 -3 25 -8 25 -6 0 -4 7 3 17 11 12 11 17 2 20 -8 3
-9 12 -3 29 7 16 6 24 -1 24 -8 0 -8 4 0 13 6 8 9 16 7 18 -8 9 -14 79 -6 74
4 -3 4 11 0 29 -5 22 -3 39 3 45 6 6 7 11 2 11 -12 0 -13 160 -1 179 6 10 5
12 -2 7 -7 -4 -12 -1 -12 8 0 8 5 18 10 21 8 5 7 11 0 21 -7 7 -10 19 -7 26 2
7 0 21 -5 32 -8 14 -7 17 3 11 9 -6 10 -3 5 11 -15 37 -17 66 -5 58 8 -5 9 -3
3 7 -5 8 -9 21 -9 29 0 8 -4 21 -8 28 -5 7 -3 12 5 12 9 0 9 3 -2 10 -13 9
-13 10 0 10 13 0 13 2 1 9 -8 5 -11 16 -8 25 4 9 2 16 -3 16 -5 0 -7 9 -5 20
2 11 0 20 -6 20 -5 0 -9 5 -9 11 0 5 4 8 8 5 5 -3 9 1 9 9 0 8 -4 12 -9 9 -4
-3 -8 3 -8 13 0 11 -6 25 -12 32 -10 11 -10 13 0 7 6 -4 12 -2 12 3 0 6 -4 11
-9 11 -5 0 -12 7 -15 16 -4 10 -2 13 7 8 9 -6 9 -5 0 8 -7 8 -10 18 -6 21 3 4
1 7 -5 7 -7 0 -12 12 -12 26 0 17 -4 23 -12 18 -8 -5 -7 0 2 11 9 11 10 16 3
11 -9 -5 -13 0 -13 13 0 12 -5 21 -11 21 -8 0 -8 4 0 14 9 10 7 17 -6 27 -16
13 -17 12 -4 -3 9 -12 10 -18 2 -18 -6 0 -12 5 -12 10 -1 6 -2 16 -3 23 -1 6
3 15 9 19 6 5 2 8 -9 8 -11 0 -16 3 -13 6 4 4 -2 15 -14 25 -14 12 -16 18 -7
22 10 4 10 6 1 6 -7 1 -13 10 -13 22 0 13 -4 18 -12 13 -8 -5 -9 -2 -5 9 3 10
2 17 -3 17 -5 0 -17 16 -26 35 -9 19 -20 35 -25 35 -5 0 -9 6 -9 13 0 7 -9 19
-19 27 -11 7 -18 17 -16 21 3 4 -2 10 -11 13 -10 4 -14 12 -10 22 6 15 4 15
-11 3 -11 -9 -14 -10 -9 -2 4 8 2 13 -4 13 -7 0 -10 7 -6 15 3 8 2 14 -2 13
-14 -4 -52 23 -52 37 0 8 -9 15 -20 15 -11 0 -20 5 -20 11 0 6 -7 9 -15 5 -9
-3 -19 3 -25 15 -6 11 -15 17 -21 14 -5 -4 -9 -1 -9 4 0 6 -7 11 -16 11 -9 0
-12 5 -8 13 4 6 4 9 -1 5 -4 -4 -15 -2 -23 5 -13 10 -15 9 -8 -3 4 -9 1 -8 -7
3 -8 9 -19 17 -26 17 -6 0 -11 5 -11 11 0 6 -9 9 -20 6 -10 -3 -18 -2 -17 2 1
3 -3 8 -8 9 -6 2 -19 9 -30 15 -11 6 -24 10 -29 9 -5 -2 -6 5 -2 14 5 14 4 15
-9 4 -10 -8 -15 -9 -15 -1 0 6 -6 11 -14 11 -8 0 -17 7 -20 16 -4 11 -13 14
-27 11 -17 -5 -18 -3 -7 11 9 10 9 13 1 9 -7 -5 -16 1 -23 12 -7 14 -7 22 1
27 8 4 7 9 -2 15 -11 6 -11 11 -1 21 6 6 12 33 12 59 0 26 5 51 10 54 8 5 7
11 -1 21 -9 11 -8 14 2 14 11 0 11 3 -1 11 -12 8 -12 12 -2 16 10 4 10 8 0 21
-11 12 -11 16 0 20 10 3 10 7 0 20 -7 9 -8 13 -2 9 8 -5 11 8 9 43 -2 27 0 48
4 46 3 -3 6 13 5 35 0 27 3 39 13 39 8 0 12 4 8 10 -3 5 9 8 30 6 30 -3 34 -2
24 10 -10 12 -8 13 15 5 18 -7 26 -7 26 0 0 6 5 7 10 4 6 -3 10 -1 10 6 0 8 5
7 17 -2 14 -12 16 -12 8 0 -6 11 -4 13 8 8 10 -3 17 -2 17 3 0 5 9 7 20 5 12
-2 23 2 27 11 4 11 9 12 19 3 12 -10 18 -6 16 12 -1 3 5 6 13 6 8 0 12 -4 9
-9 -4 -5 3 -4 14 3 12 7 18 18 14 24 -3 5 2 4 11 -3 17 -15 41 -7 31 10 -4 6
3 5 16 -2 15 -8 20 -8 16 -1 -4 6 -2 11 4 11 6 0 8 5 4 12 -5 7 -3 8 7 2 23
-14 38 -13 32 2 -3 9 2 14 17 14 16 0 20 4 16 15 -4 12 -2 13 13 5 14 -7 20
-6 25 6 3 8 10 12 16 9 5 -3 10 -1 10 4 0 6 15 18 33 26 17 8 24 13 15 10 -25
-6 -22 0 7 19 23 15 24 15 18 -1 -5 -15 -3 -14 10 2 8 11 13 24 9 29 -3 5 2 7
10 3 12 -4 17 3 22 24 3 16 11 28 17 27 10 -3 14 9 21 59 1 7 6 9 11 6 6 -4 8
3 5 15 -4 12 -2 22 3 22 5 0 9 5 9 11 0 5 -6 7 -12 3 -9 -5 -9 -3 1 9 7 9 18
14 24 10 6 -4 7 -1 1 8 -11 18 -14 39 -5 39 4 0 6 15 6 33 -1 17 4 35 9 39 7
5 6 8 -2 8 -8 0 -10 5 -5 13 14 22 14 49 1 41 -9 -6 -9 -3 0 9 8 9 12 22 9 29
-2 7 0 21 4 30 6 11 5 19 -3 24 -7 5 -8 3 -3 -6 5 -9 4 -11 -3 -6 -8 4 -8 15
-2 31 6 16 6 27 -1 31 -7 4 -6 10 1 19 8 9 8 15 0 20 -6 3 -8 11 -5 16 4 5 2
9 -4 9 -6 0 -8 7 -5 15 4 8 3 23 -2 33 -9 20 -11 28 -13 43 0 5 -7 7 -13 3 -9
-5 -9 -2 1 9 12 15 11 17 -5 18 -18 0 -18 1 1 9 l20 9 -20 0 c-17 1 -17 3 -5
11 11 7 11 10 2 10 -7 0 -10 5 -7 10 3 6 2 10 -2 10 -5 0 -14 9 -21 21 -9 13
-9 18 -2 14 8 -5 7 0 -1 13 -7 12 -17 19 -21 16 -4 -3 -5 1 -2 9 3 8 0 18 -5
22 -6 3 -9 11 -5 16 3 5 0 8 -8 7 -7 -2 -12 5 -11 15 0 10 -1 16 -4 13 -8 -8
-33 21 -33 39 0 10 -5 13 -12 9 -8 -5 -9 -2 -5 10 4 9 3 15 -2 12 -5 -3 -12 1
-15 10 -3 8 -11 12 -17 8 -8 -5 -9 -3 -4 5 8 14 -29 54 -41 43 -4 -4 -4 -2 -1
4 4 7 0 17 -8 24 -8 7 -12 17 -8 23 3 5 1 7 -5 3 -6 -3 -19 5 -30 19 -11 13
-22 21 -26 17 -4 -3 -4 1 0 11 4 12 1 17 -10 17 -9 0 -16 8 -16 17 0 9 -3 14
-6 10 -8 -8 -34 18 -34 34 0 7 -3 10 -6 6 -8 -8 -53 36 -47 46 2 4 1 7 -4 6
-18 -3 -34 1 -30 9 6 9 -19 33 -27 25 -3 -4 -6 1 -6 11 0 9 -5 14 -10 11 -6
-3 -10 -1 -10 5 0 7 -6 10 -14 7 -10 -4 -13 1 -10 16 2 12 1 16 -2 9 -4 -9
-11 -7 -25 9 -10 12 -17 25 -14 29 2 3 -2 7 -10 7 -8 0 -11 -5 -8 -11 3 -6 -5
-1 -19 12 -13 12 -28 19 -32 15 -4 -4 -4 1 0 11 5 13 4 17 -4 12 -6 -3 -13 -2
-17 4 -4 6 -11 8 -16 5 -5 -4 -9 2 -9 11 0 10 -3 14 -6 11 -4 -4 -15 3 -25 14
-9 11 -20 20 -23 20 -3 -1 -6 2 -5 6 0 4 -8 10 -18 14 -16 6 -18 19 -18 103 0
57 -4 96 -10 96 -5 0 -1 7 9 15 11 8 14 15 8 15 -8 0 -11 13 -9 38 2 31 6 37
25 36 12 0 22 3 22 7 0 9 20 7 37 -4 6 -4 15 -2 19 4 5 8 3 9 -6 4 -8 -5 -11
-4 -6 3 3 6 17 9 31 6 13 -2 26 0 29 5 3 4 19 7 36 5 21 -3 29 0 24 7 -4 8 -1
8 12 1 14 -7 25 -6 38 4 14 10 23 11 33 3 9 -8 14 -7 19 4 4 12 11 14 30 6 18
-6 23 -6 18 2 -4 6 1 10 12 8 11 -1 27 1 37 6 9 4 27 5 38 2 12 -3 22 0 26 9
4 12 8 12 21 2 12 -10 14 -10 8 0 -5 8 1 12 18 12 14 0 26 4 26 9 0 6 9 8 20
6 11 -2 18 0 15 4 -6 11 23 23 36 15 5 -3 9 2 9 11 0 9 4 13 10 10 5 -3 22 7
37 22 14 15 22 21 18 13 -8 -13 -6 -13 8 -1 9 7 14 17 11 22 -3 5 3 6 12 2 11
-4 15 -3 11 4 -4 6 5 21 20 33 16 12 21 19 13 15 -10 -4 -9 -2 3 8 9 8 17 20
17 26 0 7 5 9 12 5 8 -5 9 -2 5 10 -4 10 -1 19 8 22 8 4 15 10 15 16 0 5 -6 6
-12 3 -7 -4 -2 3 12 15 14 12 19 19 13 15 -18 -9 -16 5 3 27 14 14 14 20 4 33
-7 8 -8 15 -3 15 14 0 13 171 -1 189 -9 12 -8 13 3 6 11 -6 13 -4 6 11 -4 10
-8 27 -9 37 0 9 -4 17 -8 17 -4 0 -5 7 -2 15 4 9 0 15 -7 15 -11 0 -11 3 1 10
11 7 11 10 2 10 -7 0 -11 4 -7 9 3 5 1 12 -5 16 -5 3 -10 11 -10 16 0 6 4 7
10 4 6 -3 7 1 4 9 -3 9 -10 16 -14 16 -4 0 -11 7 -14 16 -3 8 -2 12 4 9 6 -3
10 -2 10 3 0 6 -7 12 -15 16 -8 3 -12 12 -9 19 3 8 -2 21 -11 30 -10 10 -12
18 -4 22 6 5 4 12 -8 22 -10 8 -12 12 -6 8 9 -4 11 -1 7 9 -3 9 -10 16 -15 16
-5 0 -9 7 -9 16 0 8 -4 12 -10 9 -5 -3 -7 0 -4 8 3 8 -5 25 -18 37 -21 19 -21
21 -3 15 18 -6 18 -5 -1 7 -12 7 -20 21 -19 30 2 10 -2 21 -7 25 -7 3 -8 1 -4
-5 15 -25 -3 -10 -20 16 -17 26 -17 27 1 12 11 -9 7 1 -9 23 -16 20 -32 37
-37 37 -5 0 -8 3 -8 8 3 20 -2 32 -16 32 -8 0 -17 11 -21 25 -3 14 -9 23 -14
20 -4 -2 -12 7 -18 20 -7 14 -16 25 -22 25 -6 0 -8 4 -5 10 3 6 -1 7 -10 4 -9
-4 -15 -3 -14 2 3 17 -1 37 -7 32 -10 -11 -85 72 -78 85 5 8 2 8 -9 -2 -14
-11 -18 -11 -23 2 -3 9 -14 19 -25 22 -11 4 -17 10 -15 14 3 4 -11 13 -30 20
-18 7 -34 19 -34 27 0 8 -5 12 -11 9 -6 -4 -17 1 -25 11 -9 11 -13 13 -9 4 4
-10 2 -9 -8 2 -8 10 -17 15 -20 11 -4 -3 -7 -1 -7 6 0 8 -8 11 -20 8 -11 -3
-18 -2 -15 3 6 10 -20 32 -29 23 -3 -4 -13 3 -22 15 -8 12 -20 20 -25 17 -5
-4 -9 -2 -9 3 0 5 -10 14 -22 20 -13 6 -17 11 -9 11 10 1 9 6 -5 19 -10 9 -20
24 -22 32 -2 8 -8 18 -14 21 -7 4 -6 9 1 14 9 5 9 10 1 20 -8 9 -8 15 0 20 14
9 2 27 -13 19 -7 -3 -4 1 6 9 10 8 14 17 10 20 -10 6 -10 48 0 64 4 7 2 15 -4
19 -8 4 -7 9 2 15 12 8 11 11 -1 19 -8 5 -10 10 -4 10 6 0 10 19 10 45 -1 25
1 45 4 45 10 0 5 55 -5 62 -6 5 -6 8 2 8 7 0 11 11 9 28 -1 15 2 33 8 40 7 10
5 16 -5 23 -12 8 -12 10 1 20 11 8 12 12 3 16 -7 2 -13 9 -13 14 0 6 3 8 8 6
4 -3 8 6 8 19 1 13 -2 24 -7 24 -4 0 -5 10 0 22 8 21 -7 68 -21 68 -4 0 -5 7
-2 15 4 8 1 15 -6 15 -7 0 -10 7 -6 16 3 8 2 13 -3 10 -5 -3 -12 1 -15 10 -3
8 -11 12 -17 8 -8 -4 -9 -3 -5 4 4 7 2 12 -3 12 -6 0 -11 7 -11 15 0 9 -6 12
-15 9 -8 -4 -15 -1 -15 5 0 15 -32 30 -79 36 -29 3 -41 1 -41 -8 0 -7 -3 -8
-8 -2 -12 16 -32 16 -26 0z m133 -1271 c6 4 11 3 11 -3 0 -6 7 -7 17 -4 11 5
14 3 8 -6 -6 -10 -3 -11 15 -1 15 8 20 8 16 1 -4 -6 3 -15 17 -20 14 -6 28
-15 32 -20 3 -6 11 -11 18 -11 6 0 2 7 -9 15 -10 8 -16 15 -12 15 12 0 58 -47
59 -61 0 -8 4 -5 9 6 8 18 9 18 9 2 1 -10 5 -16 10 -13 5 3 11 -1 15 -9 3 -8
11 -15 18 -15 7 0 19 -9 26 -20 7 -11 17 -20 23 -20 15 0 39 -26 32 -34 -4 -3
1 -6 10 -6 8 0 18 -9 22 -19 3 -10 15 -21 25 -24 11 -3 20 -13 20 -22 0 -9 5
-13 10 -10 6 3 10 -1 10 -9 0 -9 4 -16 8 -16 5 0 14 -12 20 -26 7 -14 17 -22
22 -19 5 3 7 0 4 -8 -3 -8 2 -21 10 -30 9 -9 16 -20 16 -26 0 -6 5 -11 10 -11
6 0 10 -9 10 -20 0 -11 5 -20 11 -20 5 0 7 -4 4 -10 -3 -5 -1 -10 5 -10 6 0 8
-4 5 -10 -3 -5 -1 -10 5 -10 6 0 8 -5 5 -10 -4 -6 0 -22 9 -35 8 -13 16 -39
18 -59 1 -20 5 -36 9 -36 3 0 7 -12 7 -27 2 -25 7 -60 12 -73 11 -27 -46 -100
-76 -100 -8 0 -14 -4 -14 -10 0 -5 -7 -10 -15 -10 -8 0 -15 -6 -15 -12 0 -9
-3 -8 -10 2 -8 12 -10 12 -16 -3 -3 -9 -10 -17 -16 -17 -5 0 -7 4 -4 9 4 5 -5
4 -19 -2 -14 -7 -25 -19 -25 -27 0 -13 -2 -13 -9 -1 -8 12 -12 12 -25 2 -8 -7
-20 -10 -26 -6 -5 3 -10 1 -10 -6 0 -8 -4 -8 -15 1 -12 10 -15 10 -15 0 0 -7
-7 -10 -15 -6 -8 3 -15 2 -15 -3 0 -4 -16 -8 -35 -9 -19 -1 -51 -3 -70 -4 -19
-1 -35 -6 -35 -12 0 -5 -7 -1 -16 10 -8 10 -13 13 -9 7 3 -7 0 -14 -7 -14 -7
-1 -23 -3 -35 -4 -13 -1 -23 2 -23 8 0 5 -6 4 -15 -3 -8 -6 -18 -9 -23 -6 -5
3 -17 -1 -28 -8 -15 -11 -22 -11 -39 -1 -11 7 -32 11 -47 10 -16 -1 -28 1 -28
5 0 4 -6 7 -12 8 -23 2 -43 7 -57 16 -9 6 -12 5 -8 -1 3 -5 0 -10 -8 -10 -8 0
-11 5 -8 10 3 5 0 7 -8 5 -8 -3 -23 -1 -34 5 -30 16 -67 18 -58 4 3 -7 -4 -3
-17 8 -13 11 -20 14 -16 8 11 -19 -5 -15 -20 5 -10 12 -13 13 -14 3 0 -9 -4
-10 -12 -4 -7 6 -23 9 -36 8 -13 -1 -26 3 -29 8 -4 6 -1 7 7 2 9 -5 11 -4 6 4
-4 6 -13 8 -19 4 -18 -11 -37 -12 -37 -2 0 5 -11 9 -24 9 -14 0 -28 5 -31 10
-5 8 -11 8 -19 1 -21 -18 -50 28 -51 82 0 26 3 47 7 47 5 0 4 9 -2 20 -8 16
-8 20 2 18 7 -2 12 3 10 10 -1 7 2 21 7 31 7 12 6 22 -2 31 -7 7 -7 10 -1 7 6
-3 17 9 26 28 9 21 11 32 4 29 -6 -3 -3 1 6 9 10 8 15 16 12 20 -5 5 11 38 34
66 7 9 12 20 11 24 0 5 8 15 18 24 10 8 12 11 4 7 -9 -5 -12 -3 -7 4 4 7 14
12 22 12 8 0 12 5 9 10 -3 6 -1 10 4 10 6 0 11 7 11 16 0 9 5 12 12 8 8 -5 9
-2 5 9 -3 9 -2 16 2 14 11 -3 61 50 53 57 -5 6 14 10 31 7 4 0 6 5 5 11 -2 7
5 12 14 12 11 -1 15 5 13 18 -2 10 0 16 5 13 4 -3 22 9 39 26 17 17 31 27 32
22 0 -4 4 2 9 15 5 12 17 22 27 22 10 0 27 11 37 25 10 14 25 25 32 25 8 0 14
8 15 18 0 9 3 12 6 5 3 -10 7 -10 18 0 7 7 10 17 7 22 -3 6 3 3 13 -5 10 -8
16 -10 13 -5 -4 6 5 15 18 22 13 6 22 7 18 2 -3 -5 0 -9 6 -9 6 0 13 7 17 16
4 11 8 12 13 4 4 -7 13 -9 19 -6z m-16 -2047 c4 3 7 1 7 -5 0 -14 22 -12 32 3
5 6 8 5 8 -2 0 -7 8 -13 18 -13 10 0 23 -5 30 -12 9 -9 12 -9 12 2 0 9 5 8 20
-5 11 -10 20 -14 20 -9 0 5 5 2 10 -6 5 -8 15 -15 22 -16 28 -1 78 -26 72 -36
-3 -5 2 -8 12 -6 12 2 18 -2 16 -10 -1 -8 2 -11 8 -7 5 3 10 0 10 -7 0 -9 3
-9 10 2 9 13 10 13 11 0 1 -8 1 -19 0 -24 -1 -5 5 -6 14 -3 9 4 15 1 15 -8 0
-8 6 -15 14 -15 7 0 20 -8 27 -17 13 -17 12 -17 -6 -4 -11 8 -3 -2 18 -22 21
-20 36 -41 32 -47 -3 -5 1 -10 9 -10 8 0 18 -5 22 -12 5 -7 3 -8 -7 -3 -12 8
-12 6 0 -8 7 -9 18 -14 23 -11 6 4 5 -4 -2 -16 -7 -14 -8 -20 -1 -16 14 9 44
-40 38 -63 -3 -14 -1 -18 9 -14 10 4 12 0 7 -13 -4 -10 -2 -15 3 -11 5 3 11
-6 12 -21 1 -15 7 -28 12 -30 6 -2 10 -15 10 -28 0 -13 5 -24 12 -24 6 0 8 -3
5 -7 -4 -3 -1 -13 6 -21 9 -13 9 -14 0 -8 -7 4 -13 2 -13 -3 0 -6 4 -11 10
-11 5 0 6 -7 3 -17 -4 -10 -2 -14 4 -10 7 4 10 -12 9 -47 0 -30 2 -52 5 -50 4
2 10 -3 13 -12 3 -8 2 -12 -4 -9 -6 4 -8 -10 -6 -35 2 -22 1 -40 -3 -40 -4 0
-7 -10 -8 -21 -1 -12 -11 -28 -23 -36 -12 -8 -19 -21 -16 -29 3 -9 -1 -14 -13
-14 -10 0 -23 -10 -30 -22 -9 -18 -10 -19 -6 -3 6 18 5 18 -15 -2 -22 -24 -36
-31 -24 -12 4 8 0 8 -15 0 -11 -7 -21 -17 -21 -24 0 -7 -4 -6 -10 3 -8 12 -10
12 -10 1 0 -8 -3 -11 -7 -8 -3 4 -13 1 -21 -6 -13 -10 -15 -9 -8 3 4 9 1 8 -7
-2 -16 -21 -32 -24 -21 -5 5 8 2 8 -9 -2 -9 -7 -17 -10 -17 -5 0 5 -5 2 -10
-6 -8 -12 -10 -12 -10 -1 0 11 -3 11 -15 1 -9 -7 -18 -10 -22 -6 -3 3 -17 -1
-31 -10 -20 -13 -26 -14 -33 -3 -6 10 -11 11 -16 3 -10 -13 -53 -13 -53 1 0 5
-5 2 -11 -8 -6 -9 -14 -15 -20 -12 -5 4 -15 3 -21 -2 -18 -11 -72 -11 -79 0
-4 5 -29 10 -57 10 -27 1 -48 5 -46 8 2 3 -16 6 -38 7 -23 1 -45 8 -50 15 -6
9 -8 8 -8 -3 0 -12 -2 -12 -9 -1 -7 10 -10 11 -16 1 -6 -10 -11 -9 -22 5 -7
11 -13 13 -13 7 0 -9 -5 -10 -19 -2 -26 13 -34 13 -26 -2 4 -7 1 -6 -7 2 -7 8
-29 16 -48 18 -19 1 -39 7 -44 12 -6 6 -14 5 -23 -1 -9 -8 -13 -8 -13 -1 0 6
-9 9 -19 7 -11 -2 -22 3 -25 12 -5 12 -9 13 -21 3 -11 -9 -18 -10 -29 -1 -7 6
-25 12 -40 13 -14 1 -26 8 -26 15 0 6 -8 14 -18 18 -11 3 -24 17 -31 31 -7 16
-16 22 -24 18 -8 -5 -8 -2 2 9 7 9 9 17 4 17 -5 0 -9 9 -10 20 -1 11 4 20 10
20 8 0 8 3 2 8 -13 9 -18 32 -7 32 5 0 8 14 7 30 -1 17 1 30 5 30 3 0 5 12 5
28 -1 15 3 32 8 39 5 7 6 16 3 22 -4 5 0 15 7 23 7 7 12 25 12 40 -1 15 1 25
6 23 9 -6 21 24 13 36 -3 5 3 9 13 9 15 0 16 2 3 10 -8 5 -10 10 -5 10 6 0 17
15 24 33 8 17 23 40 34 50 11 9 16 17 11 17 -5 1 2 7 16 15 14 8 21 14 17 15
-12 0 20 30 32 30 6 0 10 3 10 8 -3 19 2 25 11 12 8 -12 10 -10 10 9 0 21 2
22 17 10 11 -10 14 -10 9 -1 -4 6 -2 12 3 12 6 0 11 7 11 16 0 14 3 14 16 4
12 -11 15 -11 12 1 -2 8 3 13 10 11 8 -1 12 1 10 5 -2 5 10 22 26 38 16 17 26
23 21 15 -5 -8 8 2 28 23 22 22 42 35 48 31 8 -4 9 -3 5 4 -4 8 0 12 11 12 15
0 16 2 3 10 -13 9 -13 10 0 11 8 1 18 1 23 0 4 0 7 7 7 16 0 9 3 14 6 10 4 -3
13 0 20 8 8 8 21 12 29 9 8 -4 15 -2 15 3 0 5 11 9 25 9 14 0 25 -4 25 -9 0
-4 5 -5 10 -2 6 4 7 12 3 18 -5 8 -2 8 9 0 8 -7 18 -10 21 -6z"/>
<path d="M6335 8890 c-3 -5 -1 -10 4 -10 6 0 11 5 11 10 0 6 -2 10 -4 10 -3 0
-8 -4 -11 -10z"/>
<path d="M6777 8454 c-3 -4 -55 -7 -114 -8 -59 -1 -114 -5 -120 -9 -8 -5 -13
-3 -13 5 0 8 -3 9 -8 3 -8 -12 -52 -12 -71 0 -9 5 -12 4 -8 -2 4 -6 0 -14 -9
-17 -8 -3 -12 -2 -9 4 3 6 -1 10 -10 10 -9 0 -13 -4 -10 -10 4 -6 -4 -6 -21 0
-20 8 -29 8 -34 -1 -6 -8 -9 -7 -13 2 -4 10 -6 10 -6 2 -1 -9 -8 -10 -27 -3
-14 6 -23 6 -20 1 3 -4 -14 -7 -39 -6 -24 1 -42 -2 -39 -7 3 -4 -5 -8 -18 -8
-13 0 -30 -6 -37 -12 -11 -11 -12 -10 -6 2 8 13 7 13 -8 1 -10 -8 -20 -11 -24
-8 -3 4 -12 2 -19 -3 -6 -6 -22 -13 -35 -15 -12 -3 -26 -10 -31 -17 -4 -7 -8
-9 -8 -4 0 4 -11 1 -25 -8 -14 -9 -25 -13 -25 -9 0 4 -6 -1 -13 -12 -8 -10
-18 -15 -24 -12 -5 3 -15 -3 -23 -13 -8 -10 -18 -16 -23 -13 -5 3 -13 -1 -18
-8 -4 -8 -13 -14 -18 -14 -6 0 -17 -9 -26 -20 -9 -11 -13 -13 -10 -5 4 8 -8
-2 -28 -22 -19 -20 -38 -34 -41 -31 -3 4 -6 -1 -6 -10 0 -9 -6 -14 -12 -12
-13 5 -38 -37 -38 -62 0 -7 -5 -13 -10 -13 -6 0 -8 -11 -6 -25 3 -13 1 -27 -4
-30 -5 -3 -7 -14 -5 -25 2 -11 -1 -20 -7 -20 -6 0 -8 -13 -6 -30 3 -16 2 -30
-2 -30 -4 0 -6 -10 -5 -22 1 -13 -3 -26 -9 -30 -7 -5 -6 -8 3 -8 11 0 11 -3 1
-15 -6 -8 -9 -19 -5 -25 3 -5 2 -10 -3 -10 -5 0 -7 -11 -4 -25 2 -14 -2 -32
-9 -41 -10 -13 -10 -17 2 -25 9 -6 10 -9 2 -9 -7 0 -10 -7 -7 -15 4 -9 0 -15
-7 -15 -11 0 -11 -3 1 -10 9 -6 11 -10 3 -10 -7 0 -10 -7 -7 -15 4 -9 0 -15
-7 -15 -12 0 -12 -2 -1 -9 8 -4 14 -12 14 -16 0 -4 -6 -12 -14 -16 -10 -7 -10
-9 0 -9 8 0 10 -5 5 -12 -13 -22 -13 -48 0 -48 8 0 8 -3 -2 -9 -8 -5 -12 -18
-8 -30 3 -12 2 -21 -1 -21 -11 0 -8 -214 3 -222 6 -5 5 -8 -4 -8 -10 0 -10 -6
4 -26 9 -15 12 -23 6 -20 -15 10 -14 -7 2 -23 10 -11 9 -12 -3 -6 -13 8 -13 6
-2 -8 8 -9 10 -22 6 -28 -4 -7 -3 -9 3 -6 6 4 13 -10 17 -35 4 -23 11 -45 17
-49 5 -3 11 -16 12 -27 1 -12 4 -22 7 -22 4 0 12 -16 20 -35 8 -19 17 -35 22
-35 4 0 5 -6 2 -13 -2 -7 7 -19 21 -27 14 -7 25 -17 25 -22 0 -5 -6 -6 -12 -2
-7 4 -5 -2 6 -14 10 -12 23 -19 29 -15 5 3 7 2 4 -4 -7 -10 36 -53 53 -53 5 0
14 -9 20 -20 6 -11 20 -20 30 -20 11 0 20 -4 20 -10 0 -5 7 -7 15 -4 8 4 15 1
15 -6 0 -6 5 -8 10 -5 6 3 10 2 10 -3 0 -6 7 -13 16 -16 10 -4 13 -2 8 6 -5 7
-3 8 7 2 17 -10 33 -14 81 -21 25 -3 36 -9 31 -17 -4 -6 1 -5 11 3 10 9 20 11
24 5 8 -10 16 -12 66 -16 20 -1 36 -5 36 -8 0 -3 8 -7 18 -8 32 -3 47 -7 61
-16 10 -7 12 -5 6 5 -6 10 -4 10 11 -2 10 -8 31 -15 47 -14 15 0 27 -3 27 -7
0 -4 7 -5 15 -2 9 4 15 0 15 -7 0 -11 3 -11 10 1 6 9 10 10 10 3 0 -6 9 -10
20 -8 11 2 20 0 20 -5 0 -4 7 -11 16 -14 8 -3 12 -2 9 4 -4 6 2 7 18 1 14 -6
28 -7 31 -4 3 4 6 1 6 -6 0 -8 8 -11 19 -8 12 3 22 -1 25 -10 4 -8 13 -13 21
-9 8 3 14 0 12 -7 -1 -7 3 -11 9 -10 6 1 11 -5 11 -13 0 -7 -4 -14 -8 -14 -9
0 -6 -33 5 -41 4 -4 3 -16 -3 -27 -6 -11 -7 -23 -3 -26 10 -6 9 -36 -1 -53 -4
-6 -3 -15 3 -18 8 -5 8 -11 0 -20 -8 -10 -8 -15 0 -20 8 -5 8 -10 0 -20 -8 -9
-8 -14 0 -17 20 -6 -1 -40 -21 -35 -11 3 -16 1 -13 -5 4 -6 -6 -8 -24 -5 -18
3 -33 0 -36 -6 -5 -9 -8 -9 -12 1 -3 6 -10 9 -16 6 -6 -4 -25 -7 -41 -6 -17 0
-40 -4 -51 -10 -20 -11 -20 -10 -6 8 14 18 14 18 -5 2 -14 -11 -25 -14 -35 -8
-8 5 -21 5 -29 1 -9 -5 -24 -7 -33 -6 -10 2 -18 -2 -18 -8 0 -8 -3 -7 -9 2 -7
10 -13 11 -30 2 -12 -7 -21 -8 -21 -2 0 5 -9 7 -20 4 -11 -3 -17 -10 -13 -17
4 -6 -1 -5 -10 3 -12 9 -17 10 -17 2 0 -8 -5 -9 -19 -1 -24 12 -34 13 -27 1 3
-4 -19 -7 -49 -6 -39 2 -53 0 -48 -9 4 -7 2 -7 -8 1 -12 10 -18 10 -27 1 -9
-9 -12 -9 -12 1 0 11 -3 11 -15 1 -8 -7 -15 -8 -15 -3 0 5 -9 9 -19 9 -11 0
-17 -4 -15 -8 3 -5 -17 -7 -45 -5 -28 1 -51 0 -51 -3 0 -3 -19 -5 -42 -4 -24
1 -49 -4 -57 -10 -11 -8 -13 -8 -7 2 4 6 3 12 -3 12 -5 0 -13 -5 -17 -11 -4
-8 -9 -7 -15 2 -5 8 -9 10 -9 4 0 -5 -11 -11 -25 -11 -16 -1 -22 2 -18 10 4 6
-1 5 -11 -3 -15 -13 -19 -13 -27 0 -5 8 -9 9 -9 2 0 -6 -13 -10 -29 -9 -17 1
-28 -2 -25 -6 3 -4 -5 -8 -18 -8 -32 -1 -54 -21 -52 -48 1 -12 -3 -25 -8 -28
-6 -4 -5 -10 3 -15 12 -7 12 -9 0 -9 -11 0 -11 -3 0 -17 8 -9 9 -14 3 -10 -8
4 -8 -3 0 -28 6 -18 13 -32 17 -30 3 3 5 -7 3 -21 -2 -19 1 -24 12 -20 7 3 13
1 11 -3 -3 -13 44 -52 54 -45 5 3 9 0 9 -6 0 -6 5 -8 10 -5 6 3 10 2 10 -3 0
-6 9 -8 20 -5 13 3 20 0 20 -8 0 -11 2 -11 10 1 5 8 10 10 10 5 0 -6 11 -12
26 -13 18 -1 23 2 18 11 -6 9 -4 9 7 1 20 -16 69 -23 69 -11 0 6 7 2 15 -9 15
-19 15 -19 8 1 -6 18 -5 18 10 7 9 -8 21 -11 27 -7 5 3 10 1 10 -6 0 -8 4 -8
15 1 10 9 15 9 15 1 0 -6 5 -11 11 -11 5 0 7 6 3 13 -5 8 -2 8 9 -2 9 -7 17
-10 17 -6 0 4 8 1 17 -6 10 -8 14 -9 10 -2 -9 15 44 13 55 -2 5 -6 8 -5 8 3 0
7 5 10 10 7 6 -4 8 -12 4 -18 -3 -7 1 -4 9 6 10 12 17 14 22 8 3 -6 11 -11 16
-11 6 0 7 5 3 12 -4 7 -3 8 5 4 18 -11 72 -16 66 -6 -3 4 2 7 11 6 8 -1 20 -9
25 -17 7 -11 9 -11 9 -1 0 9 7 11 21 7 16 -6 20 -4 13 6 -6 11 -5 12 8 2 8 -7
18 -10 21 -6 4 3 14 0 24 -8 14 -12 16 -12 8 0 -6 11 -4 13 8 8 9 -3 18 -1 21
6 3 9 5 8 5 -1 1 -7 6 -10 11 -7 6 3 10 2 10 -3 0 -6 9 -8 20 -5 11 3 17 10
13 17 -4 7 -1 7 8 -1 12 -10 18 -10 28 0 10 9 12 9 9 -2 -2 -7 3 -16 11 -19
10 -3 12 0 7 13 -5 13 -3 15 6 8 7 -5 25 -9 41 -8 15 1 27 -3 27 -9 0 -7 3 -7
8 -1 10 14 55 15 65 1 6 -8 10 -7 14 2 4 10 8 10 21 0 9 -8 13 -8 9 -2 -4 7 1
15 10 18 10 4 14 4 10 0 -4 -4 -1 -14 6 -22 10 -13 9 -14 -3 -7 -12 6 -13 5
-3 -5 9 -9 9 -19 2 -33 -9 -15 -8 -18 3 -11 10 6 11 4 3 -7 -6 -8 -11 -41 -10
-74 0 -41 -5 -64 -15 -73 -8 -8 -10 -11 -3 -7 9 4 12 -5 11 -29 -1 -23 -5 -33
-12 -29 -6 4 -5 -1 3 -10 10 -13 11 -20 2 -31 -8 -9 -8 -16 -2 -20 23 -15 -38
-90 -65 -79 -12 4 -15 3 -10 -5 4 -7 2 -10 -6 -7 -7 2 -30 6 -51 8 -32 4 -37
2 -33 -12 4 -11 2 -10 -9 3 -9 12 -15 15 -15 7 0 -11 -3 -11 -15 -1 -12 10
-15 10 -15 0 0 -10 -3 -10 -14 -1 -11 10 -17 8 -25 -6 -10 -17 -10 -17 -11 0
0 9 -5 17 -11 17 -5 0 -7 -6 -3 -12 6 -10 4 -10 -8 0 -12 10 -18 10 -23 1 -6
-8 -10 -7 -16 2 -8 12 -10 12 -18 0 -5 -7 -11 -9 -14 -5 -3 5 -46 9 -96 8 -50
0 -91 4 -91 9 0 5 -7 4 -15 -3 -11 -9 -15 -9 -15 -1 0 9 -5 9 -20 1 -14 -8
-20 -8 -20 0 0 7 -7 7 -21 -1 -12 -6 -19 -7 -15 -1 3 6 -10 10 -32 11 -47 1
-70 5 -78 14 -4 4 -12 3 -19 -3 -13 -11 -94 -8 -114 4 -10 7 -12 6 -6 -4 6 -9
-2 -11 -33 -8 -28 2 -43 -1 -47 -10 -3 -10 -10 -10 -24 -2 -14 7 -22 7 -27 -1
-4 -8 -9 -7 -15 2 -6 10 -9 11 -9 2 0 -7 -10 -13 -22 -13 -43 0 -58 -3 -58
-14 0 -6 -4 -4 -10 4 -8 12 -10 12 -15 -2 -4 -10 -14 -14 -27 -10 -11 3 -24
-1 -29 -9 -4 -8 -14 -14 -21 -15 -35 -3 -39 -5 -32 -16 5 -8 2 -9 -9 -5 -9 3
-19 2 -22 -3 -3 -4 1 -11 7 -13 7 -3 5 -6 -6 -6 -11 -1 -16 -4 -13 -8 4 -3 0
-17 -9 -31 -9 -13 -11 -22 -6 -18 6 3 13 2 16 -3 4 -5 2 -13 -4 -16 -8 -5 -7
-11 1 -21 6 -7 9 -21 5 -29 -3 -9 -2 -14 3 -11 5 3 14 -8 20 -24 5 -17 17 -30
26 -30 9 0 18 -6 21 -14 3 -9 12 -12 21 -9 11 4 14 2 9 -5 -4 -8 0 -12 11 -12
11 0 25 -6 32 -12 11 -11 12 -10 6 1 -6 10 -2 10 16 -2 13 -8 32 -13 42 -12 9
2 17 -1 17 -6 0 -6 8 -5 20 1 15 8 20 8 20 -2 0 -9 3 -9 10 2 7 12 10 12 10 1
0 -8 6 -11 16 -7 8 3 25 1 36 -5 15 -8 19 -8 14 0 -9 14 0 14 25 1 14 -8 19
-7 19 1 0 9 3 9 14 0 11 -9 15 -9 19 1 4 10 8 10 16 -2 7 -10 11 -11 11 -3 0
7 7 10 15 7 8 -4 12 -11 8 -18 -4 -6 0 -5 9 2 10 8 39 12 76 11 32 -1 64 1 70
5 7 4 12 3 12 -2 0 -5 11 -7 24 -5 13 3 27 0 31 -7 5 -8 11 -8 22 1 12 10 16
10 24 -2 7 -12 9 -12 9 1 0 13 1 13 10 0 9 -13 10 -13 10 0 0 12 2 12 9 1 5
-8 11 -9 15 -3 8 13 46 3 47 -12 0 -6 4 -2 9 9 8 18 9 18 9 -5 1 -15 -4 -31
-11 -38 -7 -7 -8 -12 -3 -12 5 0 0 -7 -11 -16 -10 -8 -12 -13 -4 -9 10 4 9 2
-2 -8 -10 -8 -15 -17 -11 -21 4 -3 -2 -13 -13 -21 -10 -8 -15 -15 -10 -15 5 0
-3 -11 -18 -25 -15 -14 -24 -30 -21 -35 3 -6 -1 -7 -10 -4 -10 4 -15 2 -13 -7
2 -7 -4 -14 -12 -14 -8 0 -14 -6 -13 -13 3 -11 -10 -16 -30 -13 -5 1 -6 -3 -2
-9 3 -5 1 -10 -5 -10 -6 0 -8 -5 -5 -10 4 -6 3 -10 -2 -9 -24 4 -43 -2 -37
-13 5 -8 0 -9 -14 -6 -14 4 -20 2 -15 -5 4 -6 0 -8 -10 -4 -11 4 -14 2 -11 -7
3 -9 -3 -13 -18 -12 -13 1 -29 -5 -37 -12 -12 -11 -15 -11 -22 0 -7 11 -9 11
-9 -1 0 -8 -6 -11 -16 -7 -8 3 -12 2 -9 -4 5 -9 -1 -12 -21 -9 -4 0 -11 -5
-15 -13 -7 -10 -9 -10 -9 0 0 6 -5 12 -11 12 -5 0 -7 -5 -3 -12 5 -8 0 -9 -14
-6 -14 4 -25 0 -31 -9 -5 -10 -16 -14 -30 -10 -12 3 -27 0 -34 -6 -13 -13 -26
-17 -69 -25 -16 -2 -25 -9 -21 -15 3 -6 1 -7 -5 -3 -6 4 -28 0 -48 -9 -20 -8
-40 -12 -45 -9 -5 3 -9 0 -9 -6 0 -6 -4 -8 -10 -5 -5 3 -10 2 -10 -4 0 -5 -9
-8 -20 -6 -11 2 -20 0 -20 -5 0 -5 -9 -7 -21 -5 -15 3 -19 0 -15 -10 3 -9 -1
-12 -15 -10 -10 2 -19 -2 -19 -8 0 -7 -4 -6 -10 3 -8 12 -10 12 -10 1 0 -8 -3
-11 -7 -8 -3 4 -12 -1 -20 -11 -8 -9 -12 -11 -8 -5 4 9 1 11 -9 7 -9 -3 -13
-10 -10 -15 3 -5 -2 -9 -10 -9 -17 0 -48 -39 -40 -52 3 -4 0 -8 -6 -8 -6 0 -8
-4 -5 -10 3 -6 0 -10 -7 -10 -8 0 -9 -3 -3 -8 14 -10 17 -32 5 -32 -7 0 -7 -6
-1 -19 6 -10 8 -21 4 -24 -9 -10 17 -65 34 -71 8 -3 12 -10 9 -15 -3 -5 3 -7
14 -4 13 3 20 0 20 -8 0 -11 2 -11 10 1 7 12 10 12 10 1 0 -7 6 -11 15 -7 8 3
15 1 15 -4 0 -6 5 -10 11 -10 5 0 7 6 3 13 -4 6 2 4 13 -6 16 -14 23 -15 29
-6 5 8 3 10 -6 4 -9 -5 -11 -4 -6 3 5 9 13 9 26 2 25 -13 33 -13 24 3 -6 9 -4
9 8 -1 8 -7 24 -9 33 -5 14 5 16 3 10 -8 -7 -11 -6 -12 6 -3 8 6 40 10 72 10
44 -1 57 2 57 14 0 9 3 11 8 5 8 -12 55 -18 48 -6 -3 4 1 8 9 8 8 0 15 -4 15
-9 0 -5 7 -2 16 7 12 12 19 13 30 4 10 -8 14 -8 14 0 0 6 13 9 30 7 18 -2 36
3 49 15 14 13 21 15 24 6 4 -9 6 -9 6 1 1 6 12 12 25 12 13 0 27 6 29 13 4 9
6 9 6 0 1 -7 8 -10 16 -7 8 4 13 10 10 15 -3 4 4 6 15 4 18 -4 41 5 80 30 8 5
21 10 30 11 8 1 24 5 34 9 15 6 17 5 11 -5 -5 -9 -4 -11 4 -6 6 4 8 12 5 18
-5 8 -1 9 10 5 10 -4 15 -3 11 3 -6 9 8 14 28 11 4 0 7 7 7 17 0 14 2 15 10 2
9 -13 14 -8 11 12 0 4 8 5 19 3 12 -2 26 5 35 18 8 12 18 21 20 20 12 -7 26
-2 21 6 -7 11 22 23 36 14 6 -3 8 -1 5 4 -8 13 20 26 36 16 7 -4 5 2 -3 12 -9
11 -10 16 -2 11 7 -4 12 -2 12 4 0 6 5 8 10 5 6 -3 10 1 10 9 0 9 6 15 13 13
6 -1 11 4 10 11 -2 6 4 12 13 12 8 0 13 4 10 9 -3 5 1 12 10 15 8 3 14 14 12
23 -2 11 2 17 10 15 8 -1 11 2 7 8 -3 5 -1 10 5 10 6 0 8 4 5 10 -3 5 1 20 10
33 8 13 12 27 8 30 -3 4 -2 7 4 7 13 0 31 40 27 63 -1 9 2 15 7 11 5 -3 10 0
10 5 2 12 5 26 9 39 1 4 2 11 1 16 -1 4 3 14 10 22 6 7 8 18 4 24 -3 5 2 10
12 10 14 0 15 2 4 9 -8 5 -9 11 -3 15 6 4 9 15 7 26 -2 12 0 18 4 15 5 -3 11
2 15 10 3 8 0 15 -7 15 -7 0 -6 4 3 10 8 5 15 13 15 18 0 15 34 44 45 37 5 -3
10 -2 10 2 0 12 84 3 92 -11 5 -7 8 -7 8 -1 0 6 9 11 20 11 11 0 20 -7 20 -15
0 -11 4 -10 16 5 8 10 13 13 9 7 -4 -9 4 -13 27 -14 97 -1 137 -5 144 -11 4
-4 13 -3 21 3 7 6 13 7 13 2 0 -5 10 -9 23 -8 12 1 28 -2 35 -8 8 -6 12 -6 12
1 0 5 9 8 21 5 16 -5 18 -8 7 -15 -9 -7 -8 -9 7 -5 21 4 45 -13 45 -33 0 -5 4
-10 8 -10 5 0 14 -12 20 -26 9 -19 9 -24 1 -18 -8 5 -9 3 -3 -7 12 -20 14 -39
2 -39 -5 0 -2 -7 6 -16 18 -17 21 -28 6 -19 -5 3 -10 2 -10 -4 0 -5 6 -12 13
-14 9 -4 9 -6 0 -6 -9 -1 -10 -8 -3 -26 7 -18 6 -25 -3 -25 -8 0 -7 -4 3 -10
12 -8 12 -10 1 -10 -10 0 -11 -3 -2 -13 6 -8 8 -17 4 -20 -3 -4 -1 -7 6 -7 7
0 11 -6 8 -14 -3 -8 -3 -17 1 -21 4 -4 7 -10 8 -13 3 -23 27 -64 52 -90 17
-17 27 -33 24 -36 -5 -6 14 -10 31 -7 5 1 6 -3 2 -9 -3 -5 -1 -10 5 -10 6 0 8
-4 5 -10 -3 -5 3 -10 15 -10 12 0 18 -4 15 -10 -3 -5 0 -7 8 -4 8 3 22 -2 31
-11 9 -9 16 -13 16 -9 0 3 7 1 15 -6 8 -6 19 -9 25 -5 5 3 10 1 10 -5 0 -7 7
-10 15 -7 8 4 17 1 21 -5 5 -7 2 -8 -7 -3 -8 5 -11 4 -6 -1 9 -9 14 -11 48
-13 11 0 17 -5 14 -11 -5 -9 23 -15 48 -11 4 0 7 -4 7 -9 0 -6 9 -10 20 -10
11 0 20 -4 20 -10 0 -5 7 -7 15 -4 12 5 14 2 8 -12 -5 -16 -4 -17 8 -7 11 9
22 7 51 -7 20 -10 39 -15 42 -12 4 3 6 -1 6 -9 0 -11 2 -11 9 -1 7 11 11 11
24 -2 9 -9 27 -17 41 -18 14 -1 26 -6 26 -10 0 -4 9 -8 19 -8 11 0 23 -5 26
-11 4 -6 13 -8 21 -5 8 3 17 0 20 -7 2 -6 18 -13 35 -14 17 -1 37 -7 44 -13 6
-5 15 -7 18 -3 4 3 13 1 21 -6 11 -9 15 -9 19 1 4 11 6 10 6 0 1 -7 5 -10 11
-7 5 3 18 1 28 -4 13 -7 22 -7 30 1 9 9 12 8 12 -2 0 -13 2 -13 10 0 8 12 10
12 10 1 0 -9 4 -10 13 -4 6 5 40 9 74 8 34 0 61 4 60 9 -2 8 16 14 56 18 9 1
17 5 17 9 0 4 16 10 35 13 23 5 33 11 29 18 -5 8 -1 9 10 5 9 -4 15 -3 11 2
-3 5 0 11 5 13 6 2 12 15 14 29 1 13 6 31 11 38 5 10 4 12 -3 7 -7 -4 -13 -2
-13 3 -3 27 -19 60 -38 84 -37 46 -63 67 -73 61 -6 -4 -8 -2 -4 4 3 6 2 13 -4
17 -6 4 -7 11 -4 17 4 7 2 8 -5 4 -6 -4 -25 3 -43 15 -17 13 -28 16 -23 8 5
-8 1 -7 -12 4 -11 10 -27 17 -34 15 -8 -2 -13 3 -11 12 3 12 1 12 -9 3 -10
-10 -15 -9 -26 5 -9 10 -12 11 -7 2 7 -13 5 -13 -9 -1 -9 7 -17 10 -17 6 0 -4
-6 -3 -12 2 -7 6 -23 9 -35 8 -12 -1 -19 3 -16 8 3 5 0 7 -8 5 -8 -3 -22 1
-31 10 -13 11 -18 12 -18 2 0 -10 -3 -10 -15 0 -8 7 -15 9 -15 5 0 -5 -9 0
-19 9 -14 13 -21 14 -26 6 -5 -8 -10 -9 -14 -2 -4 6 -23 13 -44 15 -20 2 -40
7 -44 10 -3 4 -15 7 -25 7 -10 0 -18 5 -18 12 0 9 -3 9 -11 1 -11 -11 -59 5
-59 20 0 5 -4 5 -10 2 -5 -3 -22 1 -38 9 -23 12 -32 12 -42 3 -10 -9 -11 -9
-6 1 4 7 1 12 -8 12 -9 0 -16 4 -16 10 0 5 -7 7 -15 4 -8 -4 -15 -2 -15 4 0 6
-10 8 -22 4 -13 -3 -19 -1 -15 5 4 6 -3 13 -14 16 -12 3 -18 10 -15 15 4 6 -3
8 -16 4 -14 -3 -19 -2 -14 6 4 7 2 12 -4 12 -6 0 -8 5 -5 10 3 6 1 10 -4 10
-6 0 -11 10 -11 23 0 12 0 43 -1 68 -1 26 1 51 5 58 4 6 2 11 -5 11 -7 0 -5 6
6 14 10 7 16 20 13 28 -4 10 2 13 23 12 16 -1 27 2 24 6 -7 12 20 19 35 10 7
-5 23 -5 35 0 12 4 29 4 38 -1 11 -7 17 -6 17 1 0 7 6 8 18 1 13 -7 23 -6 30
1 9 9 12 9 12 -2 0 -11 3 -11 12 -2 7 7 17 8 30 1 12 -7 18 -6 18 1 0 7 6 8
18 1 13 -7 23 -6 30 1 9 9 12 9 12 -1 0 -11 3 -11 15 -1 11 9 15 9 15 1 0 -9
5 -9 21 0 16 8 20 8 14 -1 -6 -9 -2 -9 14 -1 16 9 21 9 21 -1 0 -8 3 -9 8 -3
8 12 22 13 39 2 6 -4 15 -2 20 5 4 7 24 14 43 16 73 5 80 6 80 13 0 4 11 6 25
4 14 -1 23 0 20 3 -6 6 42 32 61 32 8 0 14 5 14 12 0 6 3 8 7 5 10 -11 33 13
33 34 0 11 -5 19 -11 19 -5 0 -8 4 -4 9 8 14 -37 101 -53 101 -7 0 -10 5 -7
10 3 6 -1 10 -9 10 -9 0 -16 5 -16 11 0 5 -4 8 -9 5 -5 -3 -11 0 -14 8 -4 9
-14 12 -28 9 -14 -4 -20 -2 -16 4 4 6 -3 10 -16 9 -13 -1 -21 4 -19 12 1 6 -2
12 -8 12 -5 0 -10 -5 -10 -11 0 -8 -4 -9 -13 0 -8 6 -17 8 -20 4 -4 -3 -7 -1
-7 7 0 10 -3 10 -15 0 -8 -7 -15 -9 -15 -4 0 12 -47 33 -55 25 -10 -9 -29 -8
-37 4 -5 6 -8 5 -8 -4 0 -11 -3 -11 -15 -1 -12 10 -15 10 -15 -1 0 -11 -2 -11
-9 -1 -9 14 -32 13 -43 -3 -5 -6 -8 -6 -8 1 0 7 -28 11 -79 11 -54 0 -78 -4
-74 -11 3 -6 0 -5 -8 2 -7 6 -17 12 -22 12 -4 0 -5 -6 -1 -12 5 -9 2 -9 -9 1
-14 11 -20 11 -34 0 -11 -10 -14 -10 -9 -1 4 6 2 12 -3 12 -6 0 -11 -5 -11
-11 0 -5 -5 -7 -10 -4 -6 4 -8 12 -4 18 3 7 -2 3 -10 -7 -10 -13 -16 -15 -16
-7 0 11 -3 11 -15 1 -10 -9 -15 -9 -15 -1 0 6 -5 11 -11 11 -5 0 -7 -6 -3 -12
6 -10 4 -10 -8 0 -12 10 -18 10 -23 1 -6 -8 -10 -7 -16 2 -7 11 -9 9 -9 -5 0
-20 0 -20 -15 0 -8 11 -15 14 -15 7 0 -7 -5 -13 -11 -13 -5 0 -7 6 -3 13 5 8
2 8 -9 -2 -14 -11 -20 -11 -34 0 -11 10 -14 10 -9 2 4 -7 2 -13 -3 -13 -6 0
-11 5 -11 11 0 8 -5 8 -15 -1 -12 -10 -15 -10 -15 1 0 11 -2 11 -10 -1 -8 -12
-10 -12 -10 -1 0 11 -3 11 -15 1 -8 -7 -15 -8 -15 -3 0 5 -9 9 -20 10 -13 1
-18 -2 -13 -10 4 -7 0 -6 -10 2 -20 16 -105 21 -111 6 -3 -5 -5 -4 -5 3 -1 7
-6 10 -11 7 -6 -4 -17 -2 -25 5 -10 8 -15 8 -21 -1 -5 -8 -3 -10 7 -4 8 5 11
4 6 0 -4 -5 -18 -9 -32 -10 -15 0 -21 3 -15 9 6 6 3 14 -8 22 -9 8 -12 14 -5
14 8 0 9 9 3 30 -6 21 -5 30 3 30 7 0 6 4 -3 10 -8 5 -10 10 -4 10 11 0 10 48
-1 77 -2 7 1 15 7 19 7 4 6 9 -3 15 -9 6 -10 9 -2 9 8 0 9 9 3 30 -5 17 -6 30
-2 30 4 0 7 22 6 49 -1 44 1 49 19 45 11 -2 22 -6 25 -8 2 -3 13 -1 23 4 10 6
20 6 23 2 6 -10 36 -9 54 2 7 4 12 2 12 -6 0 -10 2 -10 9 1 6 9 10 10 16 2 5
-9 10 -9 21 0 11 9 14 9 14 -1 0 -10 3 -10 15 0 12 10 15 10 15 -1 0 -11 2
-11 9 0 8 12 12 12 25 2 12 -11 16 -11 16 -1 0 9 4 9 13 2 8 -7 18 -7 27 -2 9
6 17 5 22 -3 5 -8 8 -8 8 -1 0 12 41 11 59 -1 6 -3 11 -2 11 2 0 10 41 10 58
-1 7 -4 16 -5 21 -1 17 10 91 13 91 3 0 -5 5 -6 10 -3 6 4 7 12 3 18 -5 8 -2
8 9 0 8 -7 18 -10 21 -6 4 3 7 1 7 -6 0 -9 5 -9 21 0 13 6 19 7 15 1 -7 -11
12 -11 32 1 7 5 12 3 12 -5 0 -9 3 -9 10 2 8 12 10 12 10 1 0 -11 3 -11 15 -1
10 8 19 9 28 3 6 -5 18 -8 25 -7 6 1 17 2 23 3 5 0 7 6 4 11 -8 13 18 8 27 -5
5 -6 8 -6 8 2 0 8 11 11 30 8 16 -2 33 1 36 6 3 6 12 8 20 5 8 -3 14 -2 14 3
0 5 6 8 13 8 19 -1 77 24 77 34 0 5 7 9 15 9 8 0 15 5 15 11 0 5 3 8 8 6 4 -3
16 5 27 16 11 11 14 17 6 12 -10 -6 -10 -2 2 16 8 13 15 43 16 67 1 34 -3 42
-17 42 -13 0 -14 2 -3 9 11 7 9 10 -7 15 -13 4 -19 13 -15 22 3 7 0 14 -7 14
-7 0 -21 10 -31 22 -11 11 -19 17 -19 13 0 -4 -10 0 -22 11 -13 12 -18 13 -13
4 7 -12 6 -13 -7 -3 -8 7 -18 9 -22 5 -4 -4 -6 -1 -4 7 3 14 -4 15 -125 20
-28 1 -36 4 -31 14 5 8 2 8 -9 -2 -14 -11 -17 -11 -17 0 0 12 -2 12 -9 0 -5
-8 -11 -9 -15 -3 -7 11 -24 11 -43 -1 -6 -4 -15 -3 -18 3 -5 8 -11 7 -21 -1
-8 -6 -14 -7 -14 -2 0 11 -81 10 -100 -2 -8 -5 -15 -4 -18 3 -2 7 -11 8 -26 2
-15 -5 -27 -5 -34 2 -8 8 -15 8 -26 -1 -10 -8 -16 -9 -21 -1 -3 6 -12 7 -18 3
-17 -10 -68 -10 -90 0 -11 5 -23 4 -30 -2 -8 -6 -18 -6 -27 -1 -9 5 -20 5 -28
-2 -9 -8 -16 -8 -20 -1 -6 9 -48 11 -77 3 -5 -1 -13 -1 -17 0 -20 6 -34 5 -40
-5 -5 -6 -8 -4 -8 5 0 13 -1 13 -10 0 -5 -8 -10 -10 -10 -4 0 7 -15 11 -37 9
-48 -3 -71 4 -51 16 10 7 10 9 0 9 -9 0 -10 5 -2 19 7 14 7 20 -2 23 -8 3 -8
10 2 27 7 15 8 21 1 17 -6 -4 -11 -4 -11 -1 0 4 5 16 11 27 8 16 8 19 -1 13
-9 -6 -9 -3 -1 13 8 15 8 22 -2 26 -9 5 -9 7 0 12 8 4 9 13 3 29 -6 16 -5 25
3 29 9 3 9 5 -1 5 -10 1 -10 6 -2 21 7 14 7 20 0 20 -5 0 -10 5 -10 11 0 5 5
7 12 3 7 -4 8 -3 4 4 -12 19 13 54 35 49 10 -3 17 -2 14 3 -7 12 53 18 65 6 7
-7 10 -6 10 3 0 11 3 11 17 0 10 -8 14 -9 10 -2 -4 6 -3 14 3 18 5 3 10 0 10
-7 0 -9 3 -9 8 -2 4 6 20 10 35 10 16 -1 31 2 33 6 8 13 26 9 19 -4 -4 -7 1
-4 9 6 10 13 16 15 16 7 0 -11 3 -11 17 0 14 12 16 12 8 0 -6 -11 -5 -12 6 -5
8 4 32 10 54 11 61 5 65 6 65 13 0 4 14 6 30 5 17 -1 30 2 30 7 0 4 3 7 8 7
19 -3 33 2 27 10 -3 5 0 13 6 17 7 4 9 3 5 -4 -3 -6 -2 -13 4 -17 5 -3 10 -1
10 5 0 6 5 8 10 5 6 -3 10 0 10 7 0 9 3 9 10 -2 8 -13 10 -12 10 4 0 11 3 16
7 13 3 -4 12 -2 20 5 7 6 16 8 19 5 3 -2 17 6 31 19 14 13 29 21 34 18 5 -3 9
0 9 6 0 6 11 15 25 22 13 6 22 15 19 19 -3 5 2 9 10 9 9 0 16 7 16 15 0 9 6
12 17 8 11 -4 14 -3 9 5 -4 7 -1 12 9 12 9 0 13 5 10 11 -4 6 2 17 14 25 12 8
21 25 21 36 0 12 3 18 7 15 9 -10 55 61 48 73 -4 6 -3 9 2 8 4 -2 9 1 10 5 1
5 8 14 16 20 8 7 18 29 21 50 4 21 11 35 17 32 6 -4 7 6 4 25 -4 25 -2 31 8
27 9 -3 13 6 12 35 -1 21 3 41 7 44 4 3 8 14 8 25 0 11 4 17 10 14 6 -3 7 1 4
9 -3 9 -11 16 -18 16 -6 0 -5 4 3 9 8 5 12 18 8 30 -3 12 -2 23 2 25 12 8 22
244 10 251 -7 5 -3 61 6 76 5 8 4 10 -3 5 -7 -4 -12 -1 -12 9 0 10 5 13 12 9
8 -5 8 -3 2 7 -5 8 -10 32 -10 54 -1 22 -3 40 -4 40 -2 0 -11 70 -13 98 -1 9
-5 17 -9 17 -4 0 -7 8 -7 18 -1 38 -5 52 -13 52 -4 0 -8 8 -8 18 0 10 -6 24
-12 31 -11 11 -10 12 2 6 10 -6 8 -1 -4 13 -11 12 -15 22 -10 22 5 0 4 4 -1 8
-6 4 -19 24 -30 45 -11 20 -23 37 -28 37 -4 0 -5 5 -2 10 3 6 1 10 -4 10 -6 0
-11 5 -11 11 0 15 -47 59 -54 51 -3 -3 -6 2 -6 10 0 15 -26 33 -43 29 -5 -1
-6 2 -4 6 3 5 -1 13 -8 20 -11 10 -15 10 -18 0 -3 -7 -6 -5 -6 4 -1 20 -28 33
-35 16 -2 -7 -5 -4 -5 7 -1 12 -6 16 -17 12 -8 -3 -12 -2 -9 4 3 6 0 10 -8 10
-8 0 -20 6 -26 13 -6 8 -24 13 -41 12 -16 -1 -30 1 -30 4 0 4 -12 8 -26 9 -15
1 -32 6 -38 10 -6 5 -18 8 -26 7 -8 -1 -23 3 -32 7 -11 5 -18 5 -18 -2 0 -5
-7 -10 -15 -10 -8 0 -15 6 -15 13 0 8 -4 7 -10 -3 -5 -8 -10 -10 -10 -3 0 6
-9 9 -22 5 -16 -4 -19 -2 -13 8 5 9 4 11 -4 6 -19 -12 -61 -14 -67 -4 -3 5
-12 4 -20 -3 -8 -6 -14 -7 -14 -2 0 5 -9 9 -20 10 -11 1 -18 -2 -15 -8 9 -14
-2 -11 -19 7 -9 8 -16 11 -16 6 0 -6 -8 -9 -17 -7 -10 2 -18 4 -18 5 0 1 -10
3 -22 4 -12 1 -20 -1 -17 -6 8 -12 -10 -10 -24 4 -7 7 -12 8 -12 2 0 -5 -9
-10 -20 -10 -11 0 -20 3 -20 6 0 6 -121 2 -128 -5 -2 -2 -14 0 -25 6 -14 8
-18 8 -13 0 4 -6 3 -11 -3 -11 -5 0 -12 6 -14 13 -3 6 -6 8 -6 2 -1 -11 -62
-12 -79 -1 -6 3 -13 2 -17 -4 -3 -5 -11 -10 -16 -10 -6 0 -7 5 -4 10 7 11 2
13 -8 4z m418 -384 c6 10 11 9 22 -5 7 -11 13 -13 13 -6 0 7 5 9 13 4 17 -11
30 -11 45 0 8 6 12 5 12 -4 0 -11 2 -11 10 1 7 11 10 12 10 2 0 -8 6 -12 13
-9 6 2 22 0 35 -4 15 -6 22 -5 22 3 0 7 7 3 16 -8 8 -10 13 -13 9 -6 -3 6 -1
12 4 12 6 0 11 -5 11 -11 0 -5 5 -7 10 -4 6 3 10 -1 10 -10 0 -9 5 -13 10 -10
6 4 7 12 3 18 -5 8 -2 8 9 0 8 -7 18 -10 21 -6 4 3 7 1 7 -7 0 -10 4 -10 17 1
10 9 14 9 10 2 -11 -18 27 -35 42 -20 7 7 12 8 11 2 -4 -21 0 -36 9 -30 5 3
12 1 16 -5 4 -6 10 -8 15 -5 5 3 7 -4 5 -15 -2 -12 0 -18 6 -14 6 3 13 -3 16
-15 3 -12 10 -18 17 -14 6 3 8 3 4 -2 -4 -4 -2 -15 5 -23 10 -13 9 -14 -3 -7
-11 6 -10 3 3 -12 20 -23 23 -38 5 -27 -10 6 -10 5 -1 -7 6 -8 14 -39 16 -68
3 -30 2 -50 -1 -44 -7 10 -39 10 -48 0 -3 -3 -21 -1 -40 3 -19 4 -37 4 -40 -1
-3 -5 -13 -5 -23 1 -10 5 -21 7 -24 4 -7 -7 -97 -10 -97 -3 0 8 -33 5 -49 -5
-8 -5 -16 -4 -21 4 -8 13 -16 13 -42 -1 -11 -6 -18 -5 -21 4 -4 8 -8 8 -14 2
-10 -12 -103 -14 -103 -2 0 4 -9 3 -20 -3 -11 -6 -20 -7 -20 -2 0 12 -43 9
-52 -3 -9 -12 -10 1 -12 115 -1 47 -5 91 -10 99 -6 9 -5 12 2 7 7 -4 10 1 9
14 -1 11 -4 20 -7 20 -8 0 -5 44 4 58 4 7 2 12 -5 12 -9 0 -9 3 0 14 14 16 93
18 103 2 5 -7 8 -3 8 9 0 15 2 17 9 6 7 -10 10 -11 16 -1z m-655 -9 c0 11 2
11 10 -1 9 -13 11 -13 20 0 8 12 10 13 10 1 0 -8 3 -11 6 -8 7 7 64 -22 76
-38 4 -5 5 -12 2 -16 -2 -4 0 -10 5 -14 7 -4 7 -15 1 -30 -5 -14 -6 -25 -2
-25 4 0 7 -13 7 -30 0 -16 -4 -30 -10 -30 -5 0 -3 -5 5 -10 8 -5 11 -10 5 -10
-6 0 -9 -24 -9 -55 1 -30 -3 -52 -7 -49 -5 3 -9 0 -9 -6 0 -7 -7 -9 -16 -6 -9
3 -12 2 -8 -5 4 -6 -1 -9 -12 -8 -11 2 -25 0 -33 -5 -11 -7 -12 -6 -6 5 8 12
6 12 -8 0 -12 -9 -17 -10 -17 -2 0 8 -5 9 -19 1 -27 -14 -44 -13 -35 3 5 7 1
7 -10 -2 -14 -12 -19 -12 -25 -2 -6 10 -10 9 -14 -4 -5 -13 -11 -14 -27 -5
-14 8 -20 8 -20 0 0 -8 -6 -8 -20 0 -17 9 -20 8 -20 -7 0 -15 -2 -15 -9 -4
-10 15 -41 25 -40 13 3 -19 -3 -23 -16 -12 -8 7 -15 8 -15 3 0 -5 -7 -10 -15
-10 -8 0 -15 5 -15 10 0 6 -5 6 -12 0 -17 -13 -49 -13 -66 0 -9 7 -11 6 -7 -6
6 -13 1 -14 -29 -7 -23 5 -38 4 -43 -3 -4 -6 -1 -7 7 -2 9 5 11 4 6 -4 -6 -8
-12 -9 -20 -2 -7 6 -23 9 -36 6 -12 -2 -28 -1 -34 3 -15 9 -15 44 -1 54 6 5 4
8 -5 8 -11 1 -10 4 4 15 11 8 16 15 10 15 -5 0 -9 13 -9 29 0 16 4 27 9 23 5
-3 7 5 4 16 -4 12 -2 24 3 27 4 3 6 12 2 20 -3 9 1 15 8 15 11 0 11 3 -1 11
-11 7 -12 12 -3 15 7 3 9 12 6 21 -4 10 -2 14 4 10 6 -4 13 0 16 7 3 8 14 15
24 15 21 -1 73 10 85 17 4 3 8 0 8 -7 0 -7 7 -4 15 7 11 14 14 15 15 4 0 -12
2 -13 9 -1 5 7 14 10 20 7 6 -4 11 -2 11 4 0 6 4 9 9 6 4 -3 22 -1 40 4 22 6
31 5 31 -3 0 -7 4 -6 10 3 5 8 12 11 16 7 4 -4 13 -2 21 4 9 9 13 8 13 0 0 -6
5 -11 11 -11 5 0 7 5 3 11 -5 8 1 10 20 7 14 -3 26 -2 26 1 0 9 43 7 58 -3 8
-5 10 -2 5 11 -6 16 -5 16 10 4 14 -11 17 -11 17 0z m-480 -741 c0 -9 32 -6
49 5 10 6 12 4 6 -5 -6 -10 -3 -12 13 -8 12 4 22 2 22 -3 0 -6 7 -6 17 0 13 7
23 5 37 -7 11 -9 16 -12 13 -6 -8 14 51 13 72 0 9 -6 12 -5 8 1 -5 7 9 10 38
9 26 -1 45 3 45 9 0 5 5 3 10 -5 8 -13 10 -13 10 -1 0 11 4 9 15 -5 9 -11 13
-13 10 -4 -4 12 5 15 53 13 77 -3 84 -4 105 -27 9 -10 17 -15 17 -10 0 5 5 1
11 -9 5 -9 7 -22 4 -27 -3 -6 -3 -10 2 -10 4 0 13 -16 19 -35 8 -25 8 -35 0
-35 -7 0 -8 -3 -1 -8 6 -4 12 -23 14 -42 2 -19 8 -38 15 -42 8 -6 7 -10 -3
-17 -9 -6 -10 -10 -2 -16 6 -3 11 -22 9 -40 -1 -22 -6 -31 -13 -26 -5 5 -18 7
-27 6 -10 -2 -18 2 -18 8 0 7 -5 5 -10 -3 -8 -12 -10 -12 -10 -1 0 10 -3 11
-14 2 -11 -9 -15 -9 -19 1 -4 10 -8 10 -16 -2 -9 -13 -11 -13 -11 0 0 12 -8
15 -34 12 -19 -2 -37 1 -41 8 -5 8 -11 8 -22 -1 -9 -8 -17 -9 -21 -3 -4 5 -24
10 -44 9 -21 0 -38 4 -38 8 0 5 -5 5 -11 1 -6 -3 -15 0 -20 7 -7 11 -9 10 -9
-5 0 -20 0 -20 -16 0 -8 10 -12 12 -8 4 7 -13 5 -13 -9 -1 -14 11 -20 11 -34
0 -10 -8 -14 -9 -10 -2 7 12 3 13 -51 14 -13 0 -20 5 -16 11 4 7 -1 8 -16 3
-19 -6 -22 -4 -17 9 4 10 3 14 -3 11 -5 -3 -12 6 -16 20 -3 14 -10 25 -16 25
-5 0 -6 5 -3 10 3 6 0 10 -7 10 -9 0 -9 3 2 10 10 6 11 10 3 10 -7 0 -13 7
-13 16 0 8 -4 13 -9 10 -5 -4 -7 3 -4 14 3 11 -2 27 -12 36 -13 14 -14 19 -3
25 11 7 11 9 0 9 -7 0 -10 5 -7 10 3 6 2 10 -3 10 -14 0 -22 38 -8 43 16 6 46
4 46 -3z m1050 -30 c0 -3 9 -6 20 -6 11 0 20 4 20 9 0 5 6 4 13 -2 8 -6 16 -9
19 -6 8 9 193 10 206 1 7 -4 12 -2 12 4 0 7 6 8 19 0 11 -5 22 -6 25 -1 6 9
48 7 65 -3 5 -4 13 -2 16 4 5 8 11 7 21 -1 11 -9 14 -9 14 1 0 10 3 10 15 0 9
-8 15 -8 15 -2 0 6 12 9 28 7 15 -2 34 -4 42 -4 13 -1 13 -2 0 -11 -8 -5 -10
-10 -4 -10 7 0 11 -11 10 -24 0 -13 -4 -22 -8 -20 -4 3 -7 -4 -7 -13 1 -33 -7
-53 -27 -69 -10 -8 -12 -13 -4 -9 8 4 2 -6 -15 -20 -16 -15 -24 -24 -16 -20
10 6 12 4 7 -4 -6 -9 -11 -9 -22 0 -12 9 -13 9 -9 -3 7 -17 -38 -44 -56 -33
-7 5 -10 4 -5 -3 3 -6 -7 -17 -24 -26 -20 -9 -28 -10 -24 -3 3 7 -2 3 -10 -7
-9 -11 -16 -16 -16 -12 0 5 -8 2 -17 -5 -14 -12 -16 -12 -9 1 4 8 -2 4 -14
-10 -12 -14 -19 -19 -15 -12 7 14 -11 17 -20 2 -3 -5 -11 -10 -16 -10 -6 0 -7
5 -3 12 4 7 -8 1 -26 -12 -18 -13 -30 -19 -26 -12 4 7 3 12 -3 12 -5 0 -13 -5
-16 -10 -4 -6 -11 -7 -17 -4 -6 4 -14 0 -19 -7 -7 -12 -9 -12 -9 0 0 11 -3 11
-15 1 -12 -10 -15 -10 -16 1 0 8 -4 5 -9 -6 -5 -11 -9 -15 -9 -8 -1 6 -14 11
-31 11 -16 -1 -27 -5 -24 -9 3 -5 -2 -6 -10 -3 -9 3 -13 11 -9 18 4 6 -1 5
-10 -3 -12 -9 -17 -10 -17 -2 0 7 -3 10 -7 8 -10 -6 -10 94 0 110 4 6 4 14 0
16 -7 4 -8 85 -4 192 1 14 8 20 26 20 14 0 25 -2 25 -5z m470 -1496 c0 -8 -19
-13 -24 -6 -3 5 1 9 9 9 8 0 15 -2 15 -3z"/>
<path d="M6820 4376 c0 -9 -7 -13 -19 -11 -15 3 -18 -1 -14 -12 4 -10 2 -14
-4 -10 -10 6 -22 -9 -19 -25 0 -4 -8 -14 -19 -22 -11 -8 -17 -18 -13 -21 4 -4
1 -17 -7 -29 -8 -11 -15 -29 -15 -39 0 -10 -3 -16 -7 -14 -5 3 -9 -5 -9 -16
-3 -52 -9 -77 -19 -77 -5 0 -4 -4 4 -9 9 -6 10 -11 2 -15 -8 -5 -8 -13 -1 -26
7 -13 7 -21 -1 -26 -8 -4 -7 -9 2 -15 8 -5 9 -9 3 -9 -11 0 -12 -35 -1 -46 12
-12 8 -26 -5 -18 -10 6 -10 4 -2 -7 11 -14 14 -32 14 -78 0 -13 5 -30 10 -37
8 -9 7 -14 -1 -20 -8 -5 -10 -3 -4 7 5 8 4 10 0 6 -11 -10 -16 -37 -6 -37 4 0
7 -9 7 -20 0 -11 -3 -20 -7 -20 -3 0 -5 -12 -4 -27 1 -16 -2 -34 -8 -40 -5 -7
-6 -13 -3 -13 4 0 -2 -9 -12 -20 -22 -24 -70 -32 -91 -16 -11 8 -13 8 -8 0 9
-16 -18 -25 -32 -11 -8 8 -11 7 -11 -4 0 -12 -2 -12 -10 1 -5 8 -10 10 -10 3
0 -6 -13 -10 -30 -9 -16 1 -30 0 -30 -3 0 -3 -21 -5 -47 -5 -27 1 -54 -4 -62
-10 -11 -8 -13 -8 -7 2 8 13 -19 13 -41 -1 -6 -4 -14 -3 -18 3 -4 7 -12 7 -26
0 -10 -6 -19 -7 -19 -2 0 10 -30 9 -47 -1 -6 -4 -15 -3 -18 3 -5 8 -11 7 -22
-1 -12 -10 -16 -10 -24 2 -7 11 -9 11 -9 0 0 -7 -6 -11 -15 -7 -8 3 -15 2 -15
-2 0 -4 -36 -7 -79 -6 -44 0 -78 -3 -76 -6 2 -4 -2 -7 -10 -7 -8 0 -15 5 -15
11 0 6 -5 4 -10 -4 -7 -11 -10 -11 -10 -2 0 9 -5 10 -18 3 -11 -6 -24 -6 -36
1 -14 8 -17 8 -11 -2 6 -10 1 -12 -19 -8 -18 4 -30 0 -36 -11 -7 -12 -9 -12
-10 -2 0 9 -4 10 -12 4 -7 -5 -27 -9 -45 -8 -18 0 -29 -3 -26 -9 4 -5 -1 -7
-10 -3 -10 4 -20 0 -25 -9 -5 -9 -13 -17 -18 -17 -5 -1 -8 -6 -6 -10 1 -5 -2
-6 -7 -2 -11 6 -34 -29 -24 -39 3 -3 2 -6 -3 -6 -5 0 -10 -9 -10 -20 0 -11 3
-20 6 -20 6 0 8 -8 12 -49 1 -11 6 -17 10 -15 4 3 9 0 9 -5 1 -6 2 -15 3 -20
0 -5 5 -13 10 -18 5 -5 6 -2 2 7 -4 8 1 5 10 -7 9 -13 22 -23 28 -23 6 0 18
-9 26 -19 7 -11 17 -18 22 -15 4 3 16 -2 25 -11 12 -12 18 -13 23 -5 5 9 9 9
11 1 2 -6 16 -12 32 -13 15 -1 27 -6 27 -11 0 -5 6 -4 14 2 10 8 16 9 21 1 3
-5 11 -10 16 -10 6 0 8 4 5 9 -3 4 6 6 19 3 14 -2 23 -8 20 -12 -5 -9 70 -4
86 6 8 4 9 3 5 -4 -4 -7 -2 -12 3 -12 6 0 11 5 11 11 0 8 4 8 13 0 10 -8 17
-7 27 2 8 8 11 8 7 1 -8 -14 20 -27 28 -14 6 10 66 7 84 -4 6 -4 11 -4 11 1 0
10 132 9 148 -1 7 -4 12 -4 12 1 0 4 33 7 72 5 40 -1 78 -2 83 -2 6 0 38 1 73
3 34 1 62 -1 62 -5 0 -4 6 -5 13 -2 11 4 13 -11 12 -70 -1 -49 2 -73 8 -69 6
4 7 1 1 -8 -11 -18 -13 -218 -2 -241 5 -10 4 -19 -2 -23 -6 -4 -9 -20 -6 -36
2 -16 1 -29 -2 -30 -4 0 -15 -2 -24 -4 -10 -2 -18 2 -18 8 0 8 -3 8 -8 2 -9
-14 -333 -15 -325 -2 4 6 1 7 -8 1 -19 -11 -58 -13 -65 -2 -3 4 -10 5 -17 1
-18 -11 -77 -12 -77 -1 0 7 -5 6 -14 -1 -16 -13 -37 -11 -48 4 -5 6 -8 5 -8
-3 0 -8 -5 -10 -12 -6 -18 12 -48 12 -55 1 -3 -5 -9 -3 -14 4 -7 12 -9 12 -9
0 0 -11 -3 -11 -17 0 -11 10 -14 10 -9 2 4 -7 2 -13 -3 -13 -6 0 -11 5 -11 10
0 6 -5 10 -11 10 -5 0 -7 -5 -3 -11 4 -8 1 -8 -13 -1 -12 7 -25 7 -36 1 -12
-7 -17 -6 -17 3 0 9 -3 9 -10 -2 -8 -12 -10 -12 -10 -1 0 11 -3 11 -15 1 -8
-7 -15 -8 -15 -3 0 10 -41 10 -58 -1 -7 -4 -12 -2 -12 6 0 8 -3 9 -8 3 -10
-14 -32 -17 -32 -4 0 8 -4 8 -12 1 -19 -15 -30 -15 -39 0 -6 9 -9 9 -9 1 0
-11 -73 -28 -112 -26 -10 0 -15 -4 -11 -10 4 -6 0 -8 -10 -4 -9 3 -18 -1 -21
-10 -5 -12 -9 -13 -21 -3 -11 9 -15 9 -15 1 0 -7 -5 -9 -10 -6 -6 3 -13 0 -16
-9 -3 -8 -12 -12 -20 -9 -8 3 -14 0 -14 -7 0 -6 -4 -8 -10 -5 -5 3 -10 1 -10
-5 0 -6 -4 -8 -10 -5 -5 3 -10 1 -10 -5 0 -6 -4 -8 -10 -5 -6 4 -7 -1 -3 -11
4 -12 3 -15 -5 -10 -8 5 -10 2 -6 -8 4 -10 1 -16 -7 -16 -11 0 -11 -3 1 -10 8
-5 10 -10 5 -10 -9 0 -12 -42 -5 -60 1 -3 2 -8 1 -12 -3 -19 33 -88 45 -88 8
0 14 -5 14 -10 0 -6 6 -9 13 -8 6 2 11 -4 9 -12 -2 -11 1 -10 12 3 10 13 15
14 18 6 4 -12 33 -19 81 -20 9 0 17 -5 17 -10 0 -6 9 -5 21 2 15 8 19 8 15 0
-7 -10 26 -16 61 -12 6 1 14 -3 18 -9 5 -8 11 -7 21 1 11 9 14 9 14 0 0 -7 5
-9 12 -5 22 14 48 11 48 -5 0 -12 3 -11 13 4 10 12 16 14 21 7 10 -16 29 -15
20 1 -6 9 -4 10 7 0 17 -17 42 -17 33 0 -4 6 2 3 14 -7 17 -14 22 -16 22 -5 0
11 2 11 10 -1 8 -12 10 -12 10 -1 0 10 3 11 13 2 10 -8 17 -7 27 2 10 10 12 8
6 -7 -5 -14 -3 -16 6 -8 14 11 97 10 116 -2 7 -4 19 -2 27 4 11 9 15 9 15 1 0
-9 5 -9 21 0 12 6 19 7 16 2 -4 -6 237 -10 643 -10 479 -1 650 2 650 11 0 6 4
6 9 -3 6 -9 10 -10 16 -2 5 9 11 9 23 -1 9 -7 13 -8 9 -2 -4 7 25 11 90 13 53
1 100 4 104 7 4 2 10 0 14 -6 4 -6 12 -7 22 -1 9 4 25 6 36 3 15 -4 18 -2 12
9 -7 11 -6 12 6 3 19 -15 82 -16 73 -2 -5 7 -2 8 7 2 21 -13 109 -14 109 0 0
7 3 7 8 1 10 -15 46 -19 37 -5 -6 9 -2 9 14 1 16 -9 21 -9 21 0 0 9 3 9 14 0
11 -9 15 -9 19 1 4 10 6 10 6 -1 1 -11 4 -11 18 0 14 12 15 12 9 1 -7 -12 -4
-12 14 -2 12 6 28 9 36 6 9 -3 14 1 15 12 0 11 2 12 6 4 4 -10 8 -10 21 0 13
11 14 11 8 0 -7 -11 -4 -11 13 0 12 7 21 16 21 21 0 4 5 5 10 2 6 -4 7 -12 3
-18 -3 -7 2 -5 13 4 10 9 27 15 37 14 9 -2 17 1 17 7 0 5 9 6 20 3 13 -4 20
-2 20 6 0 7 3 9 7 6 3 -4 12 1 20 11 9 11 12 11 7 2 -5 -11 -4 -12 5 -4 31 29
30 147 -2 182 -9 10 -17 21 -17 25 0 8 -45 52 -56 54 -5 1 -26 9 -47 18 -22 9
-36 12 -33 6 8 -12 -17 -8 -35 5 -8 6 -25 9 -39 8 -14 -1 -32 2 -41 7 -9 5
-20 4 -26 -2 -6 -6 -19 -6 -36 0 -15 6 -27 7 -27 2 0 -11 -26 -8 -37 4 -4 4
-2 5 6 0 10 -6 12 -4 7 4 -5 8 -12 9 -19 3 -7 -5 -21 -8 -32 -6 -11 3 -56 5
-100 6 -44 1 -83 7 -87 13 -5 6 -8 7 -8 0 0 -13 -149 -14 -169 -1 -9 6 -12 5
-8 -1 7 -12 -61 -12 -79 0 -6 3 -14 3 -18 0 -12 -13 -46 -13 -46 0 0 7 -3 8
-8 2 -11 -15 -65 -16 -74 -2 -4 6 -8 7 -8 2 0 -12 -69 -13 -86 -3 -6 4 -14 4
-18 1 -10 -11 -156 -11 -156 -1 0 5 -5 6 -11 2 -8 -4 -8 -1 -1 13 7 12 7 25 1
36 -6 9 -6 17 -1 17 5 0 9 7 9 15 0 8 -4 15 -9 15 -5 0 -3 10 3 22 9 16 9 23
1 26 -9 3 -9 9 -1 24 8 16 8 19 -1 13 -9 -6 -9 -2 -1 14 8 14 8 21 1 21 -7 0
-7 7 1 22 9 17 9 23 0 26 -9 3 -9 8 1 20 10 12 10 14 1 8 -7 -4 -13 -2 -13 3
0 6 4 11 9 11 12 0 9 33 -4 43 -7 5 -7 10 0 15 12 8 15 53 3 46 -4 -3 -8 0 -8
5 0 6 4 11 9 11 4 0 8 10 7 23 -1 24 14 48 27 40 4 -2 10 3 13 11 3 9 10 16
16 16 5 0 6 -5 2 -11 -4 -8 -1 -8 12 -2 11 5 48 7 84 6 75 -4 75 -4 139 -2 27
1 54 -1 60 -5 6 -4 11 -2 11 5 0 10 3 10 11 2 7 -7 21 -8 40 -3 18 5 27 5 24
-1 -8 -12 2 -11 27 2 12 6 18 7 14 1 -3 -5 1 -12 9 -16 8 -3 19 3 24 12 6 9
11 12 11 6 0 -7 11 -14 25 -16 13 -3 23 -2 20 2 -2 3 25 6 60 5 42 -1 65 2 66
9 0 6 4 2 9 -9 l9 -20 0 20 c1 17 3 17 11 5 5 -8 10 -10 10 -4 0 6 11 10 25 9
14 -2 25 1 25 7 0 6 7 5 16 -3 10 -8 18 -9 22 -2 7 10 25 13 69 13 12 0 25 5
28 10 3 6 17 10 31 10 13 0 24 5 24 11 0 5 5 7 10 4 6 -3 10 0 10 7 0 9 3 9
10 -2 8 -13 14 -8 12 11 -1 3 11 4 25 1 16 -3 24 -1 20 5 -4 6 3 13 14 16 16
4 20 11 16 26 -3 12 -2 21 2 21 11 0 6 36 -7 53 -7 7 -9 17 -5 20 3 4 1 7 -6
7 -7 0 -10 4 -6 9 3 5 -1 15 -8 23 -8 7 -19 24 -26 36 -7 12 -16 20 -20 18 -4
-3 -14 6 -21 19 -7 13 -17 22 -22 19 -4 -3 -8 0 -8 5 0 6 -9 11 -20 11 -11 0
-20 4 -20 10 0 5 -3 9 -7 9 -23 -4 -43 2 -38 11 4 7 -2 7 -19 0 -16 -6 -27 -6
-31 0 -3 5 -30 8 -60 6 -33 -2 -52 0 -49 6 3 5 -11 2 -30 -6 -23 -9 -34 -11
-30 -4 5 8 1 9 -10 5 -10 -4 -20 -7 -22 -7 -3 0 -3 -3 -1 -7 3 -5 -18 -8 -46
-7 -29 0 -57 -3 -64 -8 -7 -5 -14 -5 -18 2 -5 8 -11 8 -19 1 -7 -6 -28 -11
-47 -13 -19 -1 -37 -7 -41 -13 -5 -6 -8 -6 -8 3 0 6 -5 12 -11 12 -5 0 -7 -6
-3 -12 5 -10 4 -10 -6 -1 -10 9 -18 9 -34 1 -15 -8 -21 -8 -24 0 -3 9 -9 9
-23 2 -14 -8 -19 -7 -19 2 0 8 -3 9 -8 3 -9 -13 -32 -18 -32 -7 0 5 -7 9 -15
9 -8 0 -12 -4 -9 -9 3 -4 1 -8 -5 -8 -5 0 -13 5 -16 10 -5 8 -11 8 -19 1 -9
-7 -17 -7 -26 2 -10 10 -11 9 -5 -2 6 -10 4 -12 -5 -6 -8 5 -29 10 -48 11 -19
1 -38 8 -42 14 -6 9 -9 9 -13 -1 -4 -10 -6 -10 -6 -1 -1 6 -8 12 -17 12 -8 0
-12 5 -9 10 3 6 1 10 -5 10 -6 0 -9 4 -6 9 3 5 0 11 -7 14 -9 3 -12 25 -11 71
1 47 -1 64 -10 59 -7 -5 -7 -2 1 8 7 9 11 32 10 52 -2 21 1 37 7 37 6 0 4 5
-4 10 -8 5 -10 10 -4 10 6 0 10 10 9 23 -1 12 3 28 9 36 9 12 8 13 -4 6 -12
-7 -13 -6 -3 6 6 8 13 39 15 69 1 30 7 58 13 62 6 5 5 8 -3 8 -10 0 -10 5 -2
20 7 14 7 20 0 20 -5 0 -10 5 -10 11 0 5 5 7 12 3 7 -5 8 -3 2 7 -4 8 -9 21
-9 29 -1 8 -2 25 -3 38 -1 13 -6 21 -11 18 -5 -4 -7 3 -4 14 3 12 0 20 -6 20
-7 0 -9 5 -6 10 3 6 -2 10 -11 10 -10 0 -15 3 -11 6 7 8 -36 53 -45 47 -5 -2
-8 0 -8 6 0 6 -7 7 -17 4 -11 -4 -14 -3 -9 5 4 8 -4 10 -28 8 -19 -1 -33 1
-30 6 8 13 -10 9 -25 -4 -10 -9 -12 -9 -7 -1 3 6 2 14 -4 18 -5 3 -10 -1 -10
-9z"/>
<path d="M3315 909 c-4 -6 -5 -12 -2 -15 2 -3 7 2 10 11 7 17 1 20 -8 4z"/>
</g>
</svg>
